<svg width="29" height="40" viewBox="0 0 29 40" fill="none" xmlns="http://www.w3.org/2000/svg">
<rect width="24" height="24" rx="12" fill="#0057E0"/>
<path d="M11.4826 5.69075C11.7826 4.76975 13.0856 4.76975 13.3846 5.69075L14.4546 8.98275C14.5199 9.18324 14.647 9.35793 14.8176 9.48185C14.9883 9.60578 15.1937 9.67259 15.4046 9.67275H18.8666C19.8356 9.67275 20.2376 10.9127 19.4546 11.4827L16.6546 13.5168C16.4836 13.6408 16.3563 13.8158 16.2909 14.0166C16.2255 14.2174 16.2254 14.4338 16.2906 14.6348L17.3606 17.9268C17.6606 18.8478 16.6056 19.6148 15.8206 19.0448L13.0206 17.0107C12.8498 16.8868 12.6441 16.82 12.4331 16.82C12.222 16.82 12.0164 16.8868 11.8456 17.0107L9.04557 19.0448C8.26157 19.6148 7.20757 18.8478 7.50657 17.9268L8.57657 14.6348C8.64174 14.4338 8.64163 14.2174 8.57623 14.0166C8.51084 13.8158 8.38354 13.6408 8.21257 13.5168L5.41357 11.4838C4.63057 10.9138 5.03357 9.67375 6.00157 9.67375H9.46257C9.67362 9.67381 9.87927 9.60709 10.0501 9.48315C10.2209 9.35921 10.3481 9.1844 10.4136 8.98375L11.4836 5.69175L11.4826 5.69075Z" fill="#F7FAFC"/>
</svg>
