<svg width="20" height="20" viewBox="0 0 20 20" fill="none" xmlns="http://www.w3.org/2000/svg">
<path fill-rule="evenodd" clip-rule="evenodd" d="M7.70679 14.7069C7.51926 14.8944 7.26495 14.9997 6.99979 14.9997C6.73462 14.9997 6.48031 14.8944 6.29279 14.7069L2.29279 10.7069C2.10532 10.5194 2 10.2651 2 9.99992C2 9.73475 2.10532 9.48045 2.29279 9.29292L6.29279 5.29292C6.48139 5.11076 6.73399 5.00997 6.99619 5.01224C7.25838 5.01452 7.5092 5.11969 7.6946 5.3051C7.88001 5.49051 7.98518 5.74132 7.98746 6.00352C7.98974 6.26571 7.88894 6.51832 7.70679 6.70692L5.41379 8.99992H16.9998C17.265 8.99992 17.5194 9.10528 17.7069 9.29281C17.8944 9.48035 17.9998 9.7347 17.9998 9.99992C17.9998 10.2651 17.8944 10.5195 17.7069 10.707C17.5194 10.8946 17.265 10.9999 16.9998 10.9999H5.41379L7.70679 13.2929C7.89426 13.4804 7.99957 13.7348 7.99957 13.9999C7.99957 14.2651 7.89426 14.5194 7.70679 14.7069Z" fill="black"/>
</svg>
