<svg width="21" height="20" viewBox="0 0 21 20" fill="none" xmlns="http://www.w3.org/2000/svg">
<path d="M10.5 0C4.986 0 0.5 4.486 0.5 10C0.5 15.514 4.986 20 10.5 20C16.014 20 20.5 15.514 20.5 10C20.5 4.486 16.014 0 10.5 0ZM11.5 16H9.5V14H11.5V16ZM12.476 11.115C12.28 11.273 12.091 11.424 11.941 11.574C11.533 11.981 11.501 12.351 11.5 12.367V12.5H9.5V12.333C9.5 12.215 9.529 11.156 10.526 10.159C10.721 9.964 10.963 9.766 11.217 9.56C11.951 8.965 12.433 8.531 12.433 7.933C12.4214 7.42782 12.2125 6.94725 11.8511 6.59412C11.4896 6.24099 11.0043 6.04334 10.499 6.04347C9.9937 6.0436 9.5085 6.2415 9.14725 6.59482C8.78599 6.94814 8.57736 7.42881 8.566 7.934H6.566C6.566 5.765 8.331 4 10.5 4C12.669 4 14.434 5.765 14.434 7.934C14.434 9.531 13.255 10.484 12.476 11.115Z" fill="#CBD5E0"/>
</svg>
