<svg width="23" height="16" viewBox="0 0 23 16" fill="none" xmlns="http://www.w3.org/2000/svg">
<path d="M15.5 0C15.7652 0 16.0196 0.105357 16.2071 0.292893C16.3946 0.48043 16.5 0.734784 16.5 1V5.2L21.713 1.55C21.788 1.49746 21.8759 1.4665 21.9672 1.4605C22.0586 1.4545 22.1498 1.4737 22.231 1.51599C22.3122 1.55829 22.3802 1.62206 22.4276 1.70035C22.4751 1.77865 22.5001 1.86846 22.5 1.96V14.04C22.5001 14.1315 22.4751 14.2214 22.4276 14.2996C22.3802 14.3779 22.3122 14.4417 22.231 14.484C22.1498 14.5263 22.0586 14.5455 21.9672 14.5395C21.8759 14.5335 21.788 14.5025 21.713 14.45L16.5 10.8V15C16.5 15.2652 16.3946 15.5196 16.2071 15.7071C16.0196 15.8946 15.7652 16 15.5 16H1.5C1.23478 16 0.98043 15.8946 0.792893 15.7071C0.605357 15.5196 0.5 15.2652 0.5 15V1C0.5 0.734784 0.605357 0.48043 0.792893 0.292893C0.98043 0.105357 1.23478 0 1.5 0H15.5ZM6.9 4.829C6.80779 4.82898 6.7184 4.86082 6.64697 4.91914C6.57553 4.97745 6.52644 5.05865 6.508 5.149L6.5 5.228V10.77C6.49999 10.8348 6.51572 10.8986 6.54582 10.9559C6.57592 11.0133 6.61951 11.0625 6.67282 11.0993C6.72614 11.1361 6.78759 11.1594 6.8519 11.1672C6.9162 11.1749 6.98144 11.167 7.042 11.144L7.115 11.108L11.47 8.336C11.5208 8.30349 11.5636 8.25991 11.5952 8.20852C11.6268 8.15713 11.6464 8.09925 11.6524 8.03924C11.6585 7.97922 11.6509 7.91861 11.6302 7.86194C11.6095 7.80527 11.5763 7.75401 11.533 7.712L11.47 7.662L7.115 4.89C7.05048 4.85 6.97591 4.82919 6.9 4.83V4.829Z" fill="white"/>
</svg>
