<svg width="18" height="20" viewBox="0 0 18 20" fill="none" xmlns="http://www.w3.org/2000/svg">
<g clip-path="url(#clip0)">
<path d="M15.787 2.08312C16.3426 2.08312 16.8133 2.27602 17.1991 2.66182C17.5849 3.04762 17.7778 3.5183 17.7778 4.07386V17.9164C17.7778 18.4411 17.5849 18.8964 17.1991 19.2822C16.8133 19.668 16.3426 19.8609 15.787 19.8609H1.99074C1.43519 19.8609 0.964506 19.668 0.578704 19.2822C0.192901 18.8964 0 18.4411 0 17.9164V4.07386C0 3.5183 0.192901 3.04762 0.578704 2.66182C0.964506 2.27602 1.43519 2.08312 1.99074 2.08312H6.11111C6.32716 1.4967 6.68982 1.02602 7.19907 0.671079C7.70833 0.316141 8.27161 0.138672 8.88889 0.138672C9.50617 0.138672 10.0694 0.316141 10.5787 0.671079C11.088 1.02602 11.4506 1.4967 11.6667 2.08312H15.787ZM8.88889 2.08312C8.61111 2.08312 8.37963 2.18342 8.19444 2.38404C8.00926 2.58466 7.91667 2.81614 7.91667 3.07849C7.91667 3.34083 8.00926 3.57231 8.19444 3.77293C8.37963 3.97355 8.61111 4.07386 8.88889 4.07386C9.16667 4.07386 9.39815 3.97355 9.58333 3.77293C9.76852 3.57231 9.86111 3.34083 9.86111 3.07849C9.86111 2.81614 9.76852 2.58466 9.58333 2.38404C9.39815 2.18342 9.16667 2.08312 8.88889 2.08312ZM10.8796 15.9257V13.935H3.93519V15.9257H10.8796ZM13.8426 11.9905V9.99978H3.93519V11.9905H13.8426ZM13.8426 8.00904V6.0646H3.93519V8.00904H13.8426Z" fill="white"/>
</g>
<defs>
<clipPath id="clip0">
<rect width="17.7778" height="20" fill="white"/>
</clipPath>
</defs>
</svg>
