<svg width="25" height="24" viewBox="0 0 25 24" fill="none" xmlns="http://www.w3.org/2000/svg">
<path d="M22.4911 10.4801L20.2578 9.81344C20.1034 9.27431 19.8911 8.7535 19.6245 8.2601L20.7178 6.21343C20.7588 6.13618 20.7739 6.04776 20.7606 5.96129C20.7474 5.87482 20.7067 5.79492 20.6445 5.73344L19.0511 4.13344C18.9897 4.07121 18.9098 4.03048 18.8233 4.01727C18.7368 4.00406 18.6484 4.01908 18.5711 4.0601L16.5378 5.14677C16.0396 4.86721 15.5119 4.64363 14.9645 4.4801L14.2978 2.27344C14.2696 2.19211 14.2163 2.12183 14.1457 2.07272C14.075 2.0236 13.9905 1.99817 13.9045 2.0001H11.6511C11.5646 2.00051 11.4804 2.02853 11.4108 2.08008C11.3413 2.13164 11.29 2.20405 11.2645 2.28677L10.5978 4.48677C10.0458 4.64942 9.51366 4.87302 9.01115 5.15344L7.01115 4.07344C6.93389 4.03241 6.84547 4.01739 6.759 4.0306C6.67253 4.04381 6.59263 4.08455 6.53115 4.14677L4.91115 5.72677C4.84893 5.78825 4.80819 5.86815 4.79498 5.95462C4.78177 6.04109 4.79679 6.12951 4.83781 6.20677L5.91781 8.20677C5.63785 8.70716 5.41426 9.23707 5.25115 9.78677L3.04448 10.4534C2.96176 10.479 2.88935 10.5303 2.83779 10.5998C2.78624 10.6693 2.75822 10.7535 2.75781 10.8401V13.0934C2.75822 13.18 2.78624 13.2642 2.83779 13.3337C2.88935 13.4033 2.96176 13.4546 3.04448 13.4801L5.26448 14.1468C5.42938 14.6873 5.65293 15.2082 5.93115 15.7001L4.83781 17.7934C4.79679 17.8707 4.78177 17.9591 4.79498 18.0456C4.80819 18.132 4.84893 18.212 4.91115 18.2734L6.50448 19.8668C6.56596 19.929 6.64586 19.9697 6.73233 19.9829C6.8188 19.9961 6.90722 19.9811 6.98448 19.9401L9.04448 18.8401C9.53179 19.1031 10.0458 19.3131 10.5778 19.4668L11.2445 21.7134C11.27 21.7962 11.3213 21.8686 11.3908 21.9201C11.4604 21.9717 11.5446 21.9997 11.6311 22.0001H13.8845C13.9711 21.9997 14.0552 21.9717 14.1248 21.9201C14.1943 21.8686 14.2456 21.7962 14.2711 21.7134L14.9378 19.4601C15.4653 19.3057 15.9748 19.0956 16.4578 18.8334L18.5311 19.9401C18.6084 19.9811 18.6968 19.9961 18.7833 19.9829C18.8698 19.9697 18.9497 19.929 19.0111 19.8668L20.6045 18.2734C20.6667 18.212 20.7074 18.132 20.7207 18.0456C20.7339 17.9591 20.7188 17.8707 20.6778 17.7934L19.5711 15.7268C19.8361 15.2419 20.0484 14.7301 20.2045 14.2001L22.4511 13.5334C22.5339 13.5079 22.6063 13.4566 22.6578 13.3871C22.7094 13.3175 22.7374 13.2333 22.7378 13.1468V10.8734C22.7417 10.7905 22.7202 10.7084 22.6761 10.6381C22.632 10.5678 22.5675 10.5127 22.4911 10.4801V10.4801ZM12.7778 15.6668C12.0526 15.6668 11.3437 15.4517 10.7407 15.0488C10.1377 14.6459 9.66778 14.0733 9.39025 13.4033C9.11273 12.7333 9.04012 11.996 9.1816 11.2848C9.32308 10.5735 9.67229 9.92017 10.1851 9.40738C10.6979 8.89458 11.3512 8.54537 12.0625 8.40389C12.7737 8.26241 13.511 8.33502 14.181 8.61254C14.851 8.89007 15.4236 9.36003 15.8265 9.96301C16.2294 10.566 16.4445 11.2749 16.4445 12.0001C16.4445 12.9726 16.0582 13.9052 15.3705 14.5928C14.6829 15.2805 13.7503 15.6668 12.7778 15.6668V15.6668Z" fill="white"/>
</svg>
