<svg width="25" height="24" viewBox="0 0 25 24" fill="none" xmlns="http://www.w3.org/2000/svg">
<path fill-rule="evenodd" clip-rule="evenodd" d="M22.3777 15.6001V6.0001C22.3777 5.36358 22.1249 4.75313 21.6748 4.30304C21.2247 3.85295 20.6143 3.6001 19.9777 3.6001H5.57773C4.94121 3.6001 4.33077 3.85295 3.88068 4.30304C3.43059 4.75313 3.17773 5.36358 3.17773 6.0001V15.6001C3.17773 16.2366 3.43059 16.8471 3.88068 17.2972C4.33077 17.7472 4.94121 18.0001 5.57773 18.0001H9.17773L12.7777 21.6001L16.3777 18.0001H19.9777C20.6143 18.0001 21.2247 17.7472 21.6748 17.2972C22.1249 16.8471 22.3777 16.2366 22.3777 15.6001ZM6.77773 8.4001C6.77773 8.08184 6.90416 7.77661 7.12921 7.55157C7.35425 7.32653 7.65947 7.2001 7.97773 7.2001H17.5777C17.896 7.2001 18.2012 7.32653 18.4263 7.55157C18.6513 7.77661 18.7777 8.08184 18.7777 8.4001C18.7777 8.71836 18.6513 9.02358 18.4263 9.24863C18.2012 9.47367 17.896 9.6001 17.5777 9.6001H7.97773C7.65947 9.6001 7.35425 9.47367 7.12921 9.24863C6.90416 9.02358 6.77773 8.71836 6.77773 8.4001ZM7.97773 12.0001C7.65947 12.0001 7.35425 12.1265 7.12921 12.3516C6.90416 12.5766 6.77773 12.8818 6.77773 13.2001C6.77773 13.5184 6.90416 13.8236 7.12921 14.0486C7.35425 14.2737 7.65947 14.4001 7.97773 14.4001H11.5777C11.896 14.4001 12.2012 14.2737 12.4263 14.0486C12.6513 13.8236 12.7777 13.5184 12.7777 13.2001C12.7777 12.8818 12.6513 12.5766 12.4263 12.3516C12.2012 12.1265 11.896 12.0001 11.5777 12.0001H7.97773Z" fill="white"/>
</svg>
