<svg width="360" height="306" viewBox="0 0 360 306" fill="none" xmlns="http://www.w3.org/2000/svg">
<path d="M56.9295 266.131L32.4036 135.673C32.1178 132.156 33.0952 128.653 35.1602 125.791L91.3775 40.3384C92.8799 38.2592 94.8965 36.6055 97.2297 35.5393C99.563 34.4732 102.133 34.0313 104.688 34.2567L289.489 51.2244C292.536 51.4927 295.423 52.6968 297.759 54.672C300.092 56.647 301.76 59.2962 302.527 62.2557L334.068 161.221C334.719 163.723 334.703 166.352 334.022 168.846L305.598 266.475L56.9295 266.131Z" fill="#F4F4F4"/>
<path d="M283.777 203.745H214.933V244.384H283.777V203.745Z" fill="#DADDDF"/>
<path d="M282.138 242.469H216.509V205.884H282.138V242.469ZM216.937 241.921H281.707V206.433H216.937V241.921Z" fill="#B2B6BB"/>
<path d="M300.595 203.745H283.777V244.384H300.595V203.745Z" fill="#DADDDF"/>
<g opacity="0.2">
<path opacity="0.2" d="M300.595 203.745H283.777V244.384H300.595V203.745Z" fill="black"/>
</g>
<path d="M216.721 217.905H281.924C282.036 217.905 282.036 217.288 281.924 217.288H216.721C216.608 217.288 216.608 217.905 216.721 217.905Z" fill="#B2B6BB"/>
<path d="M251.726 206.111V217.75C251.726 217.89 251.193 217.89 251.193 217.75V206.142L251.726 206.111Z" fill="#B2B6BB"/>
<path d="M216.721 230.347H281.924C282.036 230.347 282.036 229.732 281.924 229.732H216.721C216.608 229.732 216.608 230.347 216.721 230.347Z" fill="#B2B6BB"/>
<path d="M267.988 211.576C267.988 212.203 267.549 212.713 267.003 212.713C266.458 212.713 266.019 212.203 266.019 211.576C266.019 210.949 266.46 210.439 267.003 210.439C267.547 210.439 267.988 210.949 267.988 211.576Z" fill="#B2B6BB"/>
<path d="M234.805 211.576C234.805 212.203 234.363 212.713 233.82 212.713C233.277 212.713 232.836 212.203 232.836 211.576C232.836 210.949 233.277 210.439 233.82 210.439C234.363 210.439 234.805 210.949 234.805 211.576Z" fill="#B2B6BB"/>
<path d="M252.708 224.176C252.708 224.805 252.267 225.313 251.724 225.313C251.181 225.313 250.74 224.803 250.74 224.176C250.74 223.548 251.178 223.038 251.724 223.038C252.27 223.038 252.708 223.548 252.708 224.176Z" fill="#B2B6BB"/>
<path d="M221.424 244.384L217.497 266.47H219.705L226.947 244.384H221.424Z" fill="#DADDDF"/>
<path d="M237.449 244.384L233.522 266.47H235.73L242.972 244.384H237.449Z" fill="#DADDDF"/>
<path d="M277.933 244.384L281.217 266.508H279.009L272.409 244.384H277.933Z" fill="#DADDDF"/>
<path d="M295.831 244.384L299.552 266.508H297.343L290.308 244.384H295.831Z" fill="#DADDDF"/>
<path d="M252.642 235.679C252.642 236.306 252.201 236.816 251.658 236.816C251.114 236.816 250.673 236.306 250.673 235.679C250.673 235.051 251.112 234.541 251.658 234.541C252.203 234.541 252.642 235.051 252.642 235.679Z" fill="#B2B6BB"/>
<path opacity="0.2" d="M220.707 248.26L222.838 248.872L218.72 266.47L219.687 266.475L227.041 244.407H221.525L220.707 248.26Z" fill="black"/>
<path opacity="0.2" d="M235.952 253.529L237.811 254.916L234.82 266.47L235.71 266.475L243.064 244.407H237.548L235.952 253.529Z" fill="black"/>
<path opacity="0.2" d="M292.962 252.733L295.604 253.34L298.621 266.508L299.544 266.475L295.867 244.407H290.349L292.962 252.733Z" fill="black"/>
<path opacity="0.2" d="M273.488 248.003L276.688 248.61L280.335 266.508L281.156 266.475L278.004 244.407H272.486L273.488 248.003Z" fill="black"/>
<path d="M269.184 168.3L267.766 166.671V162.764C267.763 161.853 267.434 160.972 266.84 160.281C266.246 159.59 265.425 159.134 264.525 158.995V157.358H263.505V158.975C262.577 159.086 261.72 159.533 261.1 160.231C260.478 160.93 260.134 161.832 260.134 162.766V166.482L258.708 168.3H262.6C262.691 168.546 262.844 168.766 263.041 168.94C263.237 169.114 263.474 169.237 263.729 169.298C263.987 169.359 264.252 169.357 264.507 169.292C264.762 169.226 264.997 169.099 265.193 168.922C265.377 168.75 265.517 168.537 265.606 168.3H269.184Z" fill="#B2B6BB"/>
<path d="M93.3458 96.7827L91.7189 94.9135V90.4358C91.72 89.388 91.3456 88.3743 90.6635 87.5792C89.9814 86.7839 89.0369 86.2594 88.001 86.1008V84.2214H86.8204V86.0778C85.7537 86.2028 84.7702 86.715 84.0567 87.5175C83.343 88.32 82.949 89.3568 82.9495 90.4307V94.6917L81.3149 96.7878H85.7774C85.8838 97.0706 86.0577 97.3228 86.2841 97.5227C86.5106 97.7224 86.7827 97.8636 87.0764 97.934C87.3702 98.0041 87.6767 98.0013 87.9689 97.9254C88.2614 97.8496 88.5307 97.7033 88.7533 97.4993C88.9657 97.3032 89.1281 97.0591 89.2276 96.7878L93.3458 96.7827Z" fill="#B2B6BB"/>
<path d="M231.084 168.313L215.585 168.394C215.398 168.396 215.213 168.434 215.041 168.507C214.868 168.58 214.712 168.686 214.58 168.819C214.449 168.952 214.345 169.11 214.274 169.284C214.204 169.457 214.169 169.643 214.17 169.83L214.229 181.096C214.23 181.283 214.268 181.468 214.34 181.641C214.413 181.813 214.519 181.97 214.652 182.102C214.785 182.233 214.942 182.338 215.116 182.408C215.289 182.479 215.475 182.515 215.662 182.514L221.305 182.486C221.879 183.276 222.802 184.526 223.309 185.229C223.348 185.283 223.399 185.325 223.458 185.353C223.517 185.381 223.583 185.394 223.648 185.39C223.713 185.387 223.777 185.367 223.832 185.332C223.888 185.298 223.934 185.251 223.967 185.194L225.533 182.463L231.163 182.432C231.349 182.431 231.536 182.394 231.709 182.321C231.882 182.249 232.038 182.143 232.17 182.01C232.301 181.877 232.405 181.719 232.476 181.545C232.548 181.372 232.584 181.186 232.581 180.999L232.52 169.733C232.52 169.545 232.482 169.36 232.41 169.186C232.336 169.013 232.232 168.856 232.097 168.724C231.964 168.592 231.806 168.488 231.632 168.417C231.459 168.347 231.273 168.311 231.084 168.313Z" fill="#0057E0"/>
<path d="M221.992 177.873C222.024 178.16 221.997 178.45 221.912 178.726C221.827 179.002 221.685 179.258 221.497 179.477C221.902 179.439 222.285 179.273 222.589 179.003C222.894 178.733 223.104 178.373 223.19 177.975C223.19 177.975 226.857 178.413 227.293 175.935C227.757 173.324 225.075 172.571 223.932 172.574C221.933 172.574 220.291 173.663 220.202 175.537C220.112 177.411 221.992 177.873 221.992 177.873Z" fill="white"/>
<path d="M135.937 168.688H114.086C113.553 168.688 113.042 168.899 112.665 169.276C112.288 169.653 112.076 170.164 112.076 170.697V186.578C112.076 187.111 112.288 187.622 112.665 187.999C113.042 188.376 113.553 188.588 114.086 188.588H122.042C122.845 189.707 124.135 191.495 124.847 192.471C124.901 192.546 124.973 192.607 125.056 192.647C125.139 192.687 125.231 192.706 125.323 192.701C125.416 192.697 125.505 192.669 125.584 192.621C125.663 192.573 125.729 192.506 125.775 192.426L128.004 188.588H135.937C136.47 188.588 136.981 188.376 137.358 187.999C137.735 187.622 137.946 187.111 137.946 186.578V170.697C137.946 170.164 137.735 169.653 137.358 169.276C136.981 168.899 136.47 168.688 135.937 168.688Z" fill="#0057E0"/>
<path d="M122.781 175.032C123.107 174.835 123.458 174.682 123.824 174.578L124.041 173.558L125.788 173.528L126.043 174.548C126.414 174.637 126.77 174.777 127.104 174.963L127.986 174.384L129.243 175.598L128.695 176.501C128.892 176.826 129.045 177.177 129.149 177.544L130.181 177.76L130.212 179.507L129.192 179.762C129.101 180.133 128.961 180.489 128.776 180.823L129.355 181.705L128.141 182.962L127.239 182.414C126.913 182.612 126.562 182.764 126.196 182.868L125.979 183.888L124.232 183.919L123.977 182.899C123.607 182.808 123.25 182.668 122.916 182.483L122.034 183.062L120.777 181.848L121.325 180.945C121.128 180.619 120.975 180.267 120.871 179.9L119.839 179.686L119.808 177.939L120.828 177.684C120.919 177.313 121.059 176.957 121.244 176.623L120.665 175.741L121.879 174.484L122.781 175.032ZM123.712 177.358C123.454 177.624 123.282 177.961 123.216 178.326C123.149 178.691 123.193 179.067 123.341 179.407C123.488 179.747 123.734 180.036 124.046 180.236C124.357 180.437 124.722 180.541 125.092 180.534C125.463 180.528 125.823 180.411 126.128 180.2C126.433 179.989 126.668 179.692 126.804 179.347C126.94 179.002 126.97 178.625 126.891 178.262C126.813 177.9 126.628 177.569 126.361 177.312C126.004 176.967 125.524 176.777 125.027 176.786C124.531 176.795 124.057 177 123.712 177.358Z" fill="white"/>
<path d="M123.712 177.358C123.81 177.237 123.929 177.133 124.061 177.052C124.423 176.817 124.854 176.715 125.283 176.763C125.579 176.795 125.864 176.895 126.114 177.057C126.402 177.247 126.634 177.511 126.785 177.822C126.87 177.987 126.927 178.165 126.956 178.35C126.986 178.54 126.986 178.735 126.956 178.926C126.902 179.332 126.72 179.71 126.435 180.005C126.15 180.3 125.779 180.495 125.375 180.563C125.184 180.595 124.989 180.595 124.798 180.563C124.614 180.54 124.434 180.489 124.265 180.412C123.953 180.269 123.684 180.047 123.485 179.767C123.315 179.523 123.204 179.241 123.161 178.946C123.101 178.519 123.191 178.083 123.416 177.715C123.493 177.579 123.592 177.457 123.71 177.355C123.71 177.355 123.597 177.477 123.454 177.735C123.254 178.101 123.181 178.524 123.248 178.936C123.297 179.237 123.42 179.522 123.606 179.764C123.793 180.006 124.037 180.197 124.316 180.321C124.478 180.394 124.65 180.442 124.826 180.461C125.007 180.49 125.191 180.49 125.372 180.461C125.754 180.395 126.105 180.209 126.374 179.931C126.643 179.652 126.816 179.294 126.869 178.911C126.897 178.73 126.897 178.546 126.869 178.365C126.843 178.188 126.789 178.015 126.711 177.855C126.577 177.58 126.377 177.343 126.128 177.165C125.88 176.987 125.591 176.874 125.288 176.835C124.873 176.785 124.453 176.875 124.095 177.09C123.832 177.24 123.72 177.368 123.712 177.358Z" fill="white"/>
<path d="M122.78 175.032L122.721 175.001L122.548 174.902L121.859 174.499H121.88L120.674 175.774V175.741C120.85 175.996 121.046 176.304 121.258 176.621V176.638V176.654C121.075 176.985 120.937 177.339 120.847 177.707V177.727H120.827L119.807 177.982L119.837 177.944C119.848 178.495 119.858 179.077 119.87 179.691L119.837 179.65L120.857 179.862H120.885V179.887C120.989 180.25 121.14 180.597 121.334 180.92L121.349 180.943L121.334 180.966L120.788 181.871V181.81L122.048 183.021H121.984L122.867 182.442L122.892 182.424L122.92 182.44C123.249 182.623 123.602 182.762 123.968 182.85H123.999V182.881C124.075 183.202 124.162 183.554 124.254 183.901L124.203 183.863L125.95 183.83L125.899 183.873C125.965 183.546 126.039 183.195 126.113 182.84V182.807H126.143C126.502 182.703 126.845 182.552 127.163 182.358L127.192 182.34L127.22 182.358L128.122 182.904H128.056L129.27 181.647V181.713L128.693 180.831L128.676 180.803L128.691 180.777C128.874 180.448 129.012 180.095 129.101 179.729V179.699H129.132L130.152 179.444L130.111 179.495C130.111 178.898 130.093 178.316 130.083 177.748L130.121 177.796L129.089 177.579H129.061V177.551C128.957 177.193 128.806 176.85 128.612 176.531V176.508V176.483L129.163 175.583V175.639L127.951 174.42H128.002L127.118 174.996H127.097H127.077C126.747 174.812 126.395 174.672 126.029 174.581H126.008V174.56C125.917 174.188 125.837 173.851 125.753 173.54L125.784 173.566L124.037 173.589L124.06 173.568C123.971 173.981 123.899 174.321 123.838 174.588C123.563 174.665 123.296 174.768 123.04 174.897L122.851 174.994L122.79 175.027L122.849 174.986C122.887 174.963 122.948 174.925 123.032 174.882C123.286 174.745 123.554 174.635 123.831 174.555L123.818 174.568C123.874 174.287 123.943 173.948 124.027 173.535V173.515H124.047L125.792 173.476H125.817V173.502C125.896 173.818 125.978 174.152 126.072 174.522L126.047 174.496C126.42 174.588 126.779 174.729 127.115 174.915H127.074L127.957 174.336L127.985 174.318L128.008 174.341L129.267 175.55L129.293 175.575L129.275 175.606L128.729 176.508V176.46C128.928 176.79 129.082 177.145 129.188 177.516L129.152 177.483L130.172 177.697H130.211V177.735C130.221 178.304 130.231 178.887 130.241 179.482V179.523H130.201L129.181 179.778L129.219 179.739C129.126 180.114 128.984 180.475 128.798 180.813V180.757L129.377 181.639L129.4 181.675L129.372 181.705L128.158 182.963L128.127 182.993L128.092 182.97L127.189 182.424H127.245C126.915 182.624 126.559 182.779 126.187 182.883L126.225 182.843C126.151 183.197 126.077 183.549 126.011 183.863V183.906H125.97L124.223 183.937H124.18V183.896C124.093 183.541 124.009 183.192 123.925 182.876L123.963 182.914C123.589 182.82 123.229 182.678 122.892 182.491H122.943L122.056 183.09L122.023 183.113L121.995 183.085L120.737 181.869L120.712 181.843L120.73 181.81L121.278 180.91V180.956C121.08 180.625 120.927 180.27 120.822 179.9L120.855 179.931L119.835 179.714H119.802V179.678C119.802 179.066 119.784 178.482 119.776 177.931V177.901H119.807L120.827 177.646L120.801 177.671C120.895 177.299 121.037 176.941 121.225 176.605V176.638L120.648 175.754V175.736L120.664 175.72L121.882 174.471H121.895L122.558 174.884L122.729 174.991L122.78 175.032Z" fill="white"/>
<path d="M190.845 71.7616H170.502C169.839 71.7616 169.201 72.0253 168.732 72.4943C168.263 72.9635 168 73.5997 168 74.2632V88.7574C168 89.4209 168.263 90.0571 168.732 90.5263C169.201 90.9955 169.839 91.2589 170.502 91.2589H177.761C178.549 92.358 179.801 94.1073 180.51 95.0635C180.561 95.137 180.633 95.1961 180.714 95.2354C180.796 95.2747 180.885 95.2928 180.977 95.2882C181.066 95.2836 181.153 95.2566 181.232 95.2091C181.308 95.162 181.372 95.0962 181.418 95.0176L183.603 91.2589H190.843C191.506 91.2589 192.141 90.9955 192.61 90.5263C193.079 90.0571 193.344 89.4209 193.344 88.7574V74.2657C193.344 73.9373 193.281 73.6119 193.153 73.3082C193.028 73.0048 192.845 72.7286 192.613 72.4963C192.381 72.2637 192.105 72.0791 191.802 71.9531C191.498 71.8272 191.174 71.7619 190.845 71.7616Z" fill="#0057E0"/>
<path d="M231.084 168.313L215.585 168.394C215.398 168.396 215.213 168.434 215.041 168.507C214.868 168.58 214.712 168.686 214.58 168.819C214.449 168.952 214.345 169.11 214.274 169.284C214.204 169.457 214.169 169.643 214.17 169.83L214.229 181.096C214.23 181.283 214.268 181.468 214.34 181.641C214.413 181.813 214.519 181.97 214.652 182.102C214.785 182.233 214.942 182.338 215.116 182.408C215.289 182.479 215.475 182.515 215.662 182.514L221.305 182.486C221.879 183.276 222.802 184.526 223.309 185.229C223.348 185.283 223.399 185.325 223.458 185.353C223.517 185.381 223.583 185.394 223.648 185.39C223.713 185.387 223.777 185.367 223.832 185.332C223.888 185.298 223.934 185.251 223.967 185.194L225.533 182.463L231.163 182.432C231.349 182.431 231.536 182.394 231.709 182.321C231.882 182.249 232.038 182.143 232.17 182.01C232.301 181.877 232.405 181.719 232.476 181.545C232.548 181.372 232.584 181.186 232.581 180.999L232.52 169.733C232.52 169.545 232.482 169.36 232.41 169.186C232.336 169.013 232.232 168.856 232.097 168.724C231.964 168.592 231.806 168.488 231.632 168.417C231.459 168.347 231.273 168.311 231.084 168.313Z" stroke="#3F4249" stroke-miterlimit="10"/>
<path d="M135.937 168.688H114.086C113.553 168.688 113.042 168.899 112.665 169.276C112.288 169.653 112.076 170.164 112.076 170.697V186.578C112.076 187.111 112.288 187.622 112.665 187.999C113.042 188.376 113.553 188.588 114.086 188.588H122.042C122.845 189.707 124.135 191.495 124.847 192.471C124.901 192.546 124.973 192.607 125.056 192.647C125.139 192.687 125.231 192.706 125.323 192.701C125.416 192.697 125.505 192.669 125.584 192.621C125.663 192.573 125.729 192.506 125.775 192.426L128.004 188.588H135.937C136.47 188.588 136.981 188.376 137.358 187.999C137.735 187.622 137.946 187.111 137.946 186.578V170.697C137.946 170.164 137.735 169.653 137.358 169.276C136.981 168.899 136.47 168.688 135.937 168.688Z" stroke="#3F4249" stroke-miterlimit="10"/>
<path d="M190.845 71.7616H170.502C169.839 71.7616 169.201 72.0253 168.732 72.4943C168.263 72.9635 168 73.5997 168 74.2632V88.7574C168 89.4209 168.263 90.0571 168.732 90.5263C169.201 90.9955 169.839 91.2589 170.502 91.2589H177.761C178.549 92.358 179.801 94.1073 180.51 95.0635C180.561 95.137 180.633 95.1961 180.714 95.2354C180.796 95.2747 180.885 95.2928 180.977 95.2882C181.066 95.2836 181.153 95.2566 181.232 95.2091C181.308 95.162 181.372 95.0962 181.418 95.0176L183.603 91.2589H190.843C191.506 91.2589 192.141 90.9955 192.61 90.5263C193.079 90.0571 193.344 89.4209 193.344 88.7574V74.2657C193.344 73.9373 193.281 73.6119 193.153 73.3082C193.028 73.0048 192.845 72.7286 192.613 72.4963C192.381 72.2637 192.105 72.0791 191.802 71.9531C191.498 71.8272 191.174 71.7619 190.845 71.7616Z" stroke="#3F4249" stroke-miterlimit="10"/>
<path d="M136.815 172.808C138.977 172.808 140.729 171.056 140.729 168.894C140.729 166.732 138.977 164.98 136.815 164.98C134.653 164.98 132.901 166.732 132.901 168.894C132.901 171.056 134.653 172.808 136.815 172.808Z" fill="#0057E0"/>
<path d="M236.001 169.203C236.006 169.96 235.786 170.701 235.368 171.333C234.953 171.965 234.358 172.459 233.66 172.753C232.964 173.047 232.193 173.127 231.451 172.984C230.707 172.84 230.023 172.479 229.485 171.947C228.947 171.415 228.579 170.735 228.428 169.993C228.276 169.251 228.348 168.482 228.635 167.781C228.921 167.08 229.409 166.48 230.037 166.057C230.664 165.634 231.403 165.406 232.16 165.403C233.173 165.399 234.147 165.797 234.866 166.509C235.585 167.221 235.993 168.19 236.001 169.203Z" fill="#0057E0"/>
<path d="M194.281 77.5629C196.645 77.5629 198.563 75.6461 198.563 73.2814C198.563 70.9168 196.645 69 194.281 69C191.918 69 190 70.9168 190 73.2814C190 75.6461 191.918 77.5629 194.281 77.5629Z" fill="#0057E0"/>
<g opacity="0.2">
<path opacity="0.2" d="M136.815 172.808C138.977 172.808 140.729 171.056 140.729 168.894C140.729 166.732 138.977 164.98 136.815 164.98C134.653 164.98 132.901 166.732 132.901 168.894C132.901 171.056 134.653 172.808 136.815 172.808Z" fill="black"/>
</g>
<g opacity="0.2">
<path opacity="0.2" d="M194.237 77.5629C196.601 77.5629 198.518 75.6461 198.518 73.2814C198.518 70.9168 196.601 69 194.237 69C191.873 69 189.956 70.9168 189.956 73.2814C189.956 75.6461 191.873 77.5629 194.237 77.5629Z" fill="black"/>
</g>
<path d="M194.48 257.155L187.528 257.575L187.661 259.753L194.612 259.33L194.48 257.155Z" fill="#21252B"/>
<path d="M179.626 131.432L187.753 133.903C188.534 134.155 189.228 134.624 189.751 135.257C190.275 135.889 190.607 136.658 190.708 137.473L193.003 153.329H188.367V170.97H162.039V153.219H153.195L153.705 137.728C153.718 136.784 154.039 135.869 154.62 135.124C155.2 134.379 156.008 133.843 156.921 133.6L166.932 131.289L179.626 131.432Z" fill="#0057E0"/>
<g opacity="0.5">
<path opacity="0.2" d="M156.927 133.6C156.261 133.763 155.647 134.09 155.142 134.553V153.219H156.993V133.584L156.927 133.6Z" fill="black"/>
<path opacity="0.2" d="M158.644 133.184V153.219H160.495V132.733L158.644 133.184Z" fill="black"/>
<path opacity="0.2" d="M163.989 170.97V131.881L162.138 132.332V170.97H163.989Z" fill="black"/>
<path opacity="0.2" d="M167.49 170.97V131.3L167.194 131.289L165.638 131.483V170.97H167.49Z" fill="black"/>
<path opacity="0.2" d="M170.984 170.97V131.338L169.133 131.32V170.97H170.984Z" fill="black"/>
<path opacity="0.2" d="M174.48 170.97V131.376L172.629 131.356V170.97H174.48Z" fill="black"/>
<path opacity="0.2" d="M177.977 170.97V131.414L176.125 131.394V170.97H177.977Z" fill="black"/>
<path opacity="0.2" d="M181.475 170.97V131.996L179.623 131.432V170.97H181.475Z" fill="black"/>
<path opacity="0.2" d="M184.971 170.97V133.059L183.12 132.495V170.97H184.971Z" fill="black"/>
<path opacity="0.2" d="M188.367 170.97V153.329H188.469V134.204C188.24 134.082 188 133.982 187.752 133.906L186.63 133.559V170.97H188.367Z" fill="black"/>
<path opacity="0.2" d="M191.963 153.329V146.189L190.709 137.473C190.625 136.876 190.423 136.301 190.114 135.782V153.329H191.963Z" fill="black"/>
</g>
<path d="M175.786 108.668C176.579 108.346 177.45 108.265 178.29 108.433C179.13 108.601 179.902 109.012 180.511 109.614C182.671 111.728 181.146 113.138 183.061 114.184C184.976 115.229 183.571 118.129 185.794 119.445C188.018 120.76 186.559 124.012 184.264 124.476C184.264 124.476 183.168 127.487 180.761 127.204C180.761 127.204 178.535 129.782 174.192 128.145L172.593 127.467L175.786 108.668Z" fill="black"/>
<path d="M165.943 109.558C165.943 109.558 163.025 109.946 162.462 112.618C161.898 115.291 162.102 114.658 160.498 116.015C158.894 117.371 160.922 118.912 159.652 120.271C159.001 120.967 158.688 121.53 158.632 122.186C158.593 122.744 158.746 123.299 159.065 123.759C159.378 124.212 159.842 124.54 160.373 124.682C161.113 124.896 161.715 125.618 162.158 126.597C163.028 128.538 166.141 127.694 166.141 127.694C166.141 127.694 169.082 129.458 170.882 128.15C172.682 126.842 169.969 108.77 169.969 108.77L165.943 109.558Z" fill="black"/>
<path d="M178.542 108.607C178.542 108.607 177.323 105.802 172.932 105.802C168.541 105.802 167.192 110.096 167.192 110.096L173.567 113.569L178.542 108.607Z" fill="black"/>
<path d="M179.771 123.905C180.338 123.905 180.798 123.444 180.798 122.877C180.798 122.309 180.338 121.849 179.771 121.849C179.203 121.849 178.743 122.309 178.743 122.877C178.743 123.444 179.203 123.905 179.771 123.905Z" fill="#0057E0"/>
<path opacity="0.2" d="M179.77 121.849C179.701 121.849 179.632 121.856 179.564 121.87C179.803 121.908 180.021 122.03 180.179 122.215C180.336 122.399 180.423 122.634 180.423 122.877C180.423 123.119 180.336 123.354 180.179 123.539C180.021 123.723 179.803 123.846 179.564 123.884C179.632 123.897 179.701 123.904 179.77 123.905C180.043 123.905 180.304 123.796 180.497 123.603C180.69 123.411 180.798 123.149 180.798 122.877C180.798 122.604 180.69 122.343 180.497 122.15C180.304 121.957 180.043 121.849 179.77 121.849Z" fill="black"/>
<path d="M166.449 131.424C166.449 131.424 168.744 131.052 168.471 129.713L168.726 120.788L176.631 119.187L177.799 129.795C177.84 130.116 177.973 130.418 178.183 130.664C178.394 130.909 178.671 131.088 178.982 131.177L180.148 131.549L179.235 140.717L166.449 131.424Z" fill="#FC9D9D"/>
<path d="M179.556 121.89L179.275 114.722C179.253 114.098 178.994 113.506 178.551 113.067C178.338 112.861 178.085 112.7 177.808 112.595C177.531 112.489 177.235 112.442 176.939 112.455L170.131 112.779C169.902 112.787 169.678 112.843 169.473 112.945C169.264 113.047 169.079 113.191 168.927 113.368C168.771 113.547 168.65 113.755 168.573 113.98C168.496 114.208 168.461 114.448 168.471 114.689L168.779 122.4C168.807 123.119 168.969 123.826 169.256 124.486C169.539 125.135 169.945 125.723 170.452 126.217C170.948 126.702 171.537 127.081 172.184 127.332C172.82 127.579 173.501 127.69 174.183 127.658L174.581 127.635C175.271 127.596 175.946 127.418 176.565 127.112C177.184 126.805 177.735 126.376 178.184 125.85C179.125 124.751 179.615 123.336 179.556 121.89Z" fill="#FC9D9D"/>
<path d="M174.12 120.717C174.238 120.717 174.353 120.682 174.452 120.617C174.55 120.551 174.626 120.458 174.671 120.349C174.717 120.24 174.728 120.12 174.705 120.004C174.682 119.888 174.625 119.782 174.542 119.699C174.459 119.615 174.352 119.558 174.236 119.535C174.121 119.512 174.001 119.524 173.892 119.569C173.783 119.614 173.689 119.691 173.624 119.789C173.558 119.887 173.523 120.002 173.523 120.12C173.523 120.199 173.538 120.277 173.568 120.349C173.598 120.422 173.642 120.488 173.697 120.543C173.753 120.598 173.819 120.643 173.891 120.672C173.964 120.702 174.042 120.718 174.12 120.717Z" fill="black"/>
<path d="M174.367 120.36C174.383 120.36 174.399 120.357 174.414 120.351C174.429 120.345 174.443 120.337 174.455 120.325C174.466 120.314 174.476 120.3 174.482 120.285C174.488 120.27 174.491 120.254 174.491 120.238C174.491 120.204 174.478 120.171 174.454 120.147C174.43 120.124 174.398 120.11 174.364 120.11C174.33 120.11 174.298 120.124 174.274 120.147C174.25 120.171 174.236 120.204 174.236 120.238C174.236 120.254 174.24 120.271 174.247 120.286C174.253 120.302 174.263 120.316 174.275 120.327C174.287 120.339 174.302 120.347 174.318 120.353C174.333 120.359 174.35 120.361 174.367 120.36Z" fill="white"/>
<path d="M178.758 120.717C178.876 120.717 178.991 120.682 179.089 120.617C179.188 120.551 179.264 120.458 179.309 120.349C179.354 120.24 179.366 120.12 179.343 120.004C179.32 119.888 179.263 119.782 179.18 119.699C179.096 119.615 178.99 119.558 178.874 119.535C178.759 119.512 178.639 119.524 178.53 119.569C178.42 119.614 178.327 119.691 178.262 119.789C178.196 119.887 178.161 120.002 178.161 120.12C178.161 120.199 178.176 120.277 178.206 120.349C178.236 120.422 178.28 120.488 178.335 120.543C178.391 120.598 178.457 120.643 178.529 120.672C178.602 120.702 178.679 120.718 178.758 120.717Z" fill="black"/>
<path d="M179.005 120.329C179.03 120.329 179.054 120.322 179.075 120.308C179.095 120.294 179.111 120.275 179.121 120.252C179.13 120.229 179.133 120.204 179.128 120.18C179.123 120.156 179.111 120.134 179.094 120.116C179.076 120.099 179.054 120.087 179.03 120.082C179.005 120.077 178.98 120.08 178.958 120.089C178.935 120.098 178.915 120.114 178.901 120.135C178.888 120.155 178.88 120.18 178.88 120.204C178.88 120.238 178.894 120.269 178.917 120.293C178.94 120.316 178.972 120.329 179.005 120.329Z" fill="white"/>
<path opacity="0.15" d="M168.623 124.499L169.515 122.714H168.671L168.623 124.499Z" fill="black"/>
<g opacity="0.15">
<path opacity="0.15" d="M177.427 121.87C177.409 121.683 177.318 121.512 177.176 121.391C177.033 121.271 176.848 121.211 176.662 121.224C176.619 121.234 176.582 121.26 176.557 121.296C176.532 121.332 176.521 121.377 176.527 121.421C176.533 121.464 176.556 121.503 176.59 121.53C176.624 121.559 176.667 121.574 176.71 121.571C176.807 121.572 176.9 121.607 176.973 121.671C177.046 121.735 177.094 121.822 177.108 121.918C177.113 121.965 177.109 122.013 177.095 122.059C177.081 122.105 177.059 122.147 177.029 122.184C176.999 122.221 176.961 122.252 176.92 122.275C176.878 122.297 176.832 122.311 176.784 122.316L175.991 122.39C175.949 122.4 175.912 122.425 175.887 122.461C175.861 122.498 175.851 122.543 175.859 122.586C175.864 122.629 175.886 122.669 175.92 122.696C175.953 122.724 175.996 122.739 176.04 122.737L176.835 122.663C176.93 122.66 177.024 122.635 177.108 122.591C177.193 122.547 177.266 122.485 177.322 122.408C177.38 122.333 177.42 122.246 177.437 122.153C177.46 122.061 177.46 121.964 177.437 121.872L177.427 121.87Z" fill="black"/>
</g>
<path d="M169.489 122.688L168.895 119.85C168.224 117.269 165.05 118.014 165.82 120.569C166.59 123.124 169.193 122.678 169.193 122.678L169.489 122.688Z" fill="#FC9D9D"/>
<path opacity="0.15" d="M166.439 119.363C166.471 119.398 166.515 119.42 166.562 119.425C166.609 119.429 166.656 119.416 166.694 119.388C166.758 119.315 166.838 119.258 166.929 119.223C167.065 119.171 167.215 119.172 167.35 119.225C167.486 119.279 167.597 119.38 167.661 119.511C167.825 119.755 167.928 120.036 167.959 120.329L168.01 120.628C168.033 120.883 168.382 120.778 168.357 120.579L168.331 120.306C168.303 119.947 168.174 119.604 167.959 119.314C167.887 119.195 167.79 119.093 167.673 119.016C167.558 118.94 167.428 118.889 167.291 118.868C167.151 118.858 167.011 118.876 166.879 118.923C166.748 118.97 166.627 119.044 166.526 119.141C166.49 119.165 166.464 119.2 166.452 119.241C166.439 119.28 166.439 119.323 166.452 119.363H166.439Z" fill="black"/>
<path d="M178.741 117.621C178.414 117.654 178.098 117.757 177.815 117.922C177.532 118.086 177.289 118.31 177.101 118.578C176.656 118.428 176.174 118.436 175.734 118.601C175.523 118.253 175.221 117.971 174.86 117.785C174.483 117.596 174.061 117.518 173.641 117.559C173.222 117.601 172.823 117.76 172.491 118.019C172.149 118.289 171.895 118.654 171.759 119.067C171.657 119.377 171.625 119.707 171.666 120.031C171.707 120.355 171.819 120.666 171.995 120.941C172.17 121.217 172.405 121.45 172.681 121.623C172.958 121.797 173.27 121.907 173.594 121.946C173.919 121.984 174.248 121.95 174.557 121.846C174.867 121.742 175.15 121.57 175.385 121.344C175.62 121.117 175.802 120.841 175.918 120.536C176.033 120.23 176.079 119.903 176.053 119.577C176.028 119.335 175.966 119.097 175.87 118.873C176.223 118.756 176.605 118.748 176.963 118.85C176.811 119.154 176.731 119.488 176.729 119.827C176.726 120.167 176.803 120.504 176.953 120.809C177.102 121.115 177.32 121.382 177.59 121.589C177.86 121.796 178.175 121.937 178.509 122.002C178.842 122.068 179.186 122.056 179.513 121.966C179.841 121.877 180.144 121.713 180.398 121.487C180.652 121.261 180.85 120.979 180.977 120.663C181.105 120.349 181.158 120.008 181.13 119.669C181.076 119.085 180.796 118.545 180.349 118.164C179.903 117.783 179.326 117.591 178.741 117.629V117.621ZM174.041 121.653C173.665 121.682 173.288 121.599 172.959 121.414C172.631 121.229 172.364 120.951 172.193 120.614C172.022 120.278 171.954 119.898 171.998 119.524C172.043 119.149 172.197 118.796 172.442 118.509C172.687 118.224 173.01 118.017 173.371 117.912C173.735 117.811 174.12 117.819 174.48 117.938C174.839 118.053 175.155 118.273 175.388 118.57C175.601 118.842 175.736 119.166 175.78 119.509C175.823 119.851 175.773 120.199 175.634 120.516C175.495 120.832 175.274 121.105 174.992 121.305C174.711 121.505 174.38 121.626 174.036 121.653H174.041ZM179.075 121.745C178.634 121.78 178.194 121.661 177.831 121.408C177.467 121.156 177.203 120.785 177.082 120.359C176.962 119.934 176.993 119.479 177.17 119.074C177.346 118.668 177.659 118.336 178.053 118.135C178.447 117.934 178.898 117.875 179.331 117.97C179.763 118.064 180.149 118.305 180.423 118.653C180.698 119 180.843 119.432 180.835 119.874C180.826 120.317 180.665 120.743 180.378 121.079C180.048 121.464 179.58 121.703 179.075 121.745Z" fill="#F4F4F4"/>
<path opacity="0.15" d="M177.689 128.405C176.269 128.77 174.92 128.66 173.757 127.773C173.288 127.722 170.804 127.245 171.276 126.659C172.237 127.157 173.309 127.404 174.391 127.375C175.473 127.347 176.531 127.044 177.464 126.495L177.689 128.405Z" fill="black"/>
<path d="M174.391 123.606C174.294 123.606 174.268 123.68 174.294 123.754C174.434 124.043 174.652 124.286 174.924 124.457C175.196 124.627 175.511 124.718 175.831 124.718C176.152 124.718 176.467 124.627 176.739 124.457C177.011 124.286 177.229 124.043 177.369 123.754C177.373 123.737 177.373 123.72 177.369 123.703C177.368 123.686 177.363 123.669 177.354 123.655C177.344 123.64 177.331 123.627 177.315 123.619C177.299 123.615 177.281 123.615 177.264 123.619L174.391 123.606Z" fill="white"/>
<path d="M204.878 263.499C203.047 262.515 195.022 261.146 194.094 258.766H194.02L192.523 227.468H183.06L188.214 259.761C188.359 262.533 188.469 264.591 188.469 264.591C188.543 267.48 192.327 265.442 193.569 265.532L204.965 266.042C205.14 265.69 205.418 263.744 204.878 263.499Z" fill="#FC9D9D"/>
<path d="M160.875 264.208H169.545V265.662C169.546 265.743 169.52 265.822 169.471 265.886C169.423 265.952 169.355 265.998 169.277 266.021C166.62 266.781 163.802 266.781 161.145 266.021C161.07 265.996 161.005 265.947 160.959 265.883C160.914 265.817 160.889 265.741 160.89 265.662L160.875 264.208Z" fill="#21252B"/>
<path d="M170.005 236.36L161.773 236.273L162.793 256.418C162.834 257.203 162.768 257.991 162.597 258.759L162.087 261.12H168.743L168.409 258.57C168.327 257.927 168.315 257.275 168.373 256.629L170.005 236.36Z" fill="#FC9D9D"/>
<path opacity="0.15" d="M162.074 261.12H163.41C164.369 258.858 163.89 255.841 163.89 255.841V236.296L161.773 236.273L162.793 256.418C162.834 257.203 162.768 257.991 162.597 258.759L162.074 261.12Z" fill="black"/>
<path d="M162.17 260.957C161.69 261.819 161.279 262.716 160.941 263.642H169.476C169.476 263.642 169.106 262.257 168.672 260.957L168.269 260.865C166.263 260.363 164.16 260.398 162.172 260.967L162.17 260.957Z" fill="#21252B"/>
<path d="M168.015 263.02C168.015 263.02 166.714 262.862 165.209 262.808C163.7 262.862 162.404 263.02 162.404 263.02C160.67 263.203 160.874 264.295 160.874 264.295C160.874 264.619 162.292 264.751 163.463 264.805C164.044 264.833 164.626 264.838 165.207 264.82C165.785 264.838 166.365 264.833 166.949 264.805C168.119 264.749 169.537 264.616 169.537 264.295C169.545 264.305 169.756 263.203 168.015 263.02Z" fill="#FC9D9D"/>
<path d="M168.47 255.854L162.584 255.864L162.588 258.045L168.473 258.034L168.47 255.854Z" fill="#21252B"/>
<path opacity="0.15" d="M162.892 262.627C162.581 262.663 162.395 262.691 162.395 262.691C160.661 262.908 160.865 264.208 160.865 264.208C160.865 264.591 162.282 264.746 163.453 264.812C163.858 264.835 164.266 264.84 164.672 264.838C161.318 264.67 162.892 262.627 162.892 262.627Z" fill="black"/>
<path opacity="0.15" d="M189.945 260.327L187.344 238.527L184.463 236.273L188.214 259.771C188.344 262.239 188.443 264.139 188.469 264.524H193.757C191.294 264.491 189.945 260.327 189.945 260.327Z" fill="black"/>
<path d="M178.28 110.67C178.28 110.67 177.992 113.574 174.71 114.044C171.364 114.515 172.088 116.471 168.011 116.002C168.011 116.002 166.542 113.873 168.722 111.667C170.163 110.214 172.978 109.005 174.998 109.204C175.692 109.288 177.306 110.479 178.28 110.67Z" fill="black"/>
<path d="M177.853 110.879C177.853 110.879 175.767 112.975 181.543 116.775C181.675 115.951 181.545 115.106 181.17 114.36C180.546 113.136 177.853 110.879 177.853 110.879Z" fill="black"/>
<path opacity="0.2" d="M188.39 153L187.969 141.872C187.967 141.826 187.973 141.781 187.988 141.738C188.003 141.695 188.027 141.655 188.058 141.621C188.088 141.588 188.125 141.56 188.167 141.541C188.208 141.522 188.253 141.511 188.298 141.51C188.377 141.511 188.453 141.54 188.512 141.592C188.571 141.644 188.61 141.715 188.622 141.793L190.629 153.013L188.39 153Z" fill="black"/>
<path d="M168.543 123.905C169.11 123.905 169.57 123.444 169.57 122.877C169.57 122.309 169.11 121.849 168.543 121.849C167.975 121.849 167.515 122.309 167.515 122.877C167.515 123.444 167.975 123.905 168.543 123.905Z" fill="#0057E0"/>
<path opacity="0.2" d="M168.544 121.849C168.475 121.849 168.407 121.856 168.34 121.87C168.579 121.908 168.798 122.03 168.955 122.215C169.112 122.399 169.199 122.634 169.199 122.877C169.199 123.119 169.112 123.354 168.955 123.539C168.798 123.723 168.579 123.846 168.34 123.884C168.407 123.897 168.475 123.904 168.544 123.905C168.816 123.905 169.078 123.796 169.27 123.603C169.463 123.411 169.571 123.149 169.571 122.877C169.571 122.604 169.463 122.343 169.27 122.15C169.078 121.957 168.816 121.849 168.544 121.849Z" fill="black"/>
<path d="M190.247 155.708H183.724C183.624 155.708 183.529 155.669 183.459 155.598C183.389 155.528 183.349 155.433 183.349 155.333L185.71 143.295C185.71 143.245 185.72 143.197 185.739 143.152C185.758 143.106 185.785 143.065 185.82 143.031C185.855 142.996 185.896 142.969 185.942 142.95C185.987 142.932 186.036 142.922 186.085 142.922H192.608C192.657 142.922 192.705 142.932 192.751 142.951C192.796 142.97 192.837 142.997 192.871 143.032C192.906 143.066 192.933 143.107 192.952 143.152C192.971 143.197 192.98 143.246 192.98 143.295L190.619 155.333C190.619 155.382 190.61 155.431 190.591 155.477C190.573 155.522 190.545 155.563 190.511 155.598C190.476 155.633 190.435 155.661 190.39 155.68C190.344 155.698 190.296 155.708 190.247 155.708Z" fill="#21252B"/>
<path opacity="0.3" d="M190.247 155.708H183.724C183.624 155.708 183.529 155.669 183.459 155.598C183.389 155.528 183.349 155.433 183.349 155.333L185.71 143.295C185.71 143.245 185.72 143.197 185.739 143.152C185.758 143.106 185.785 143.065 185.82 143.031C185.855 142.996 185.896 142.969 185.942 142.95C185.987 142.932 186.036 142.922 186.085 142.922H192.608C192.657 142.922 192.705 142.932 192.751 142.951C192.796 142.97 192.837 142.997 192.871 143.032C192.906 143.066 192.933 143.107 192.952 143.152C192.971 143.197 192.98 143.246 192.98 143.295L190.619 155.333C190.619 155.382 190.61 155.431 190.591 155.477C190.573 155.522 190.545 155.563 190.511 155.598C190.476 155.633 190.435 155.661 190.39 155.68C190.344 155.698 190.296 155.708 190.247 155.708Z" fill="black"/>
<path d="M190.177 155.713H184.098C184.049 155.713 184 155.704 183.954 155.685C183.909 155.666 183.868 155.638 183.833 155.603C183.799 155.568 183.771 155.527 183.753 155.482C183.734 155.436 183.725 155.388 183.725 155.338L186.087 143.672C186.086 143.623 186.096 143.574 186.114 143.529C186.133 143.483 186.16 143.442 186.195 143.407C186.229 143.372 186.271 143.345 186.316 143.326C186.361 143.307 186.41 143.297 186.459 143.297H192.538C192.587 143.297 192.636 143.307 192.681 143.326C192.726 143.345 192.768 143.372 192.802 143.407C192.837 143.442 192.864 143.483 192.883 143.529C192.901 143.574 192.911 143.623 192.91 143.672L190.549 155.338C190.55 155.388 190.54 155.436 190.521 155.482C190.503 155.527 190.476 155.568 190.441 155.603C190.406 155.638 190.365 155.666 190.32 155.685C190.275 155.704 190.226 155.713 190.177 155.713Z" fill="#21252B"/>
<path d="M189.613 145.332C189.668 145.433 189.691 145.549 189.679 145.663C189.667 145.777 189.62 145.885 189.545 145.973C189.47 146.06 189.371 146.123 189.26 146.152C189.148 146.182 189.031 146.177 188.923 146.139C188.814 146.1 188.72 146.03 188.653 145.936C188.585 145.843 188.547 145.732 188.545 145.617C188.542 145.502 188.574 145.389 188.637 145.292C188.7 145.196 188.79 145.121 188.897 145.077C189.026 145.017 189.173 145.01 189.307 145.057C189.441 145.105 189.551 145.204 189.613 145.332Z" fill="#F4F4F4"/>
<path d="M161.924 170.993C161.924 170.993 159.058 188.557 159.925 201.781L161.552 238.527H170.222L174.401 185.997C174.429 185.367 174.707 184.872 175.337 184.872C175.622 184.872 175.898 184.975 176.113 185.163C176.328 185.35 176.467 185.61 176.505 185.892L184.53 238.527H193.419L188.467 170.993H161.924Z" fill="#21252B"/>
<path d="M205.457 265.83C205.396 265.983 205.291 266.115 205.155 266.21C205.019 266.302 204.858 266.353 204.692 266.355L195.104 266.398C194.94 266.398 194.78 266.353 194.644 266.261C194.507 266.169 194.401 266.039 194.339 265.888L194.273 265.718C194.263 265.695 194.246 265.677 194.226 265.662C194.205 265.646 194.181 265.639 194.156 265.639C194.132 265.636 194.107 265.641 194.085 265.651C194.062 265.664 194.044 265.682 194.031 265.702L193.868 265.993C193.794 266.123 193.686 266.23 193.556 266.304C193.425 266.378 193.278 266.414 193.128 266.411L188.747 266.337C188.536 266.335 188.333 266.251 188.182 266.103C188.031 265.955 187.944 265.753 187.939 265.542L187.921 264.598L205.789 264.784C205.713 265.144 205.602 265.493 205.457 265.83Z" fill="#21252B"/>
<path d="M201.103 264.733C201.287 263.731 202.419 262.693 202.419 262.693L199.706 261.74C198.686 262.492 198.071 264.738 198.071 264.738L201.103 264.733Z" fill="#21252B"/>
<path d="M194.469 255.903L187.515 256.27L187.629 258.445L194.583 258.08L194.469 255.903Z" fill="#21252B"/>
<path d="M188.528 258.335L191.435 264.805H188.117L187.811 258.279L188.528 258.335Z" fill="#21252B"/>
<path opacity="0.3" d="M175.532 184.875H175.575C175.86 184.874 176.136 184.977 176.351 185.164C176.566 185.352 176.706 185.612 176.743 185.895L184.648 238.425H187.338L180.433 187.145C180.372 186.595 180.167 186.071 179.839 185.626C179.511 185.181 179.071 184.83 178.564 184.61C177.003 183.962 175.532 184.875 175.532 184.875Z" fill="black"/>
<path opacity="0.3" d="M163.316 196.926C163.194 192.869 163.875 176.414 165.818 170.993H161.924C161.924 170.993 159.058 188.557 159.925 201.782L161.659 238.425H163.699L163.405 202.327C163.399 200.525 163.369 198.725 163.316 196.926Z" fill="black"/>
<path d="M192.887 154.629V149.251L192.24 147.645L190.937 148.775L191.153 149.642C190.756 149.54 188.8 147.693 187.808 148.367C186.816 149.04 184.281 152.745 184.281 152.745C184.281 152.745 187.66 156.233 188.374 156.57C188.374 156.57 187.561 159.786 187.308 160.966C187.056 162.147 186.798 165.605 188.374 166.084C191.472 167.025 192.709 164.829 193.219 162.922C193.503 161.809 193.578 160.653 193.441 159.513L192.887 154.629Z" fill="#FC9D9D"/>
<path opacity="0.15" d="M189.2 156.57L188.009 154.785L190.452 153.283C190.624 153.181 190.771 153.04 190.88 152.871C190.989 152.703 191.057 152.511 191.079 152.311C191.099 152.066 191.049 151.819 190.936 151.6C190.936 151.6 191.586 150.516 191.153 149.649C191.044 149.608 190.94 149.551 190.847 149.481L188.669 148.262C188.527 148.218 188.376 148.205 188.228 148.223C188.08 148.241 187.938 148.29 187.81 148.367C186.82 149.04 184.283 152.737 184.283 152.737C184.283 152.737 185.714 154.216 186.91 155.338L186.948 155.374L186.986 155.407C187.407 155.838 187.873 156.223 188.376 156.555C188.376 156.555 187.563 159.77 187.31 160.951C187.058 162.132 186.8 165.589 188.376 166.069C190.804 166.806 192.091 165.615 192.777 164.149C185.507 167.382 189.2 156.57 189.2 156.57Z" fill="black"/>
<path opacity="0.2" d="M161.924 170.753H165.343L163.426 143.017C163.418 142.903 163.368 142.796 163.285 142.718C163.202 142.64 163.093 142.597 162.979 142.596C162.86 142.596 162.746 142.643 162.662 142.728C162.578 142.812 162.531 142.926 162.531 143.045V153.219H161.539L161.924 170.753Z" fill="black"/>
<path d="M191.629 151.167C192.335 150.509 191.468 150.075 191.468 150.075C192.118 149.208 191.035 148.775 191.035 148.775C191.1 148.689 191.14 148.587 191.153 148.481C191.165 148.374 191.148 148.266 191.103 148.168C191.073 148.076 191.021 147.994 190.951 147.928C190.882 147.862 190.797 147.814 190.704 147.789C190.611 147.764 190.514 147.762 190.42 147.783C190.327 147.805 190.24 147.849 190.168 147.913L188.217 148.996L184.313 149.863L184.746 147.913L179.014 152.416L161.875 157.44V153.219H153.876L153.646 162.897C153.629 163.619 153.795 164.334 154.127 164.976C154.46 165.617 154.949 166.164 155.549 166.567C156.15 166.969 156.842 167.213 157.562 167.277C158.281 167.34 159.006 167.221 159.667 166.931L180.962 157.057L187.337 155.063L190.808 152.918C190.995 152.81 191.136 152.637 191.205 152.431C191.386 151.84 190.591 151.921 190.591 151.921L191.226 151.503C191.358 151.378 191.501 151.284 191.629 151.167Z" fill="#FC9D9D"/>
<path opacity="0.15" d="M190.927 148.874L188.757 150.185L186.156 151.052" stroke="black" stroke-width="0.85" stroke-miterlimit="10" stroke-linecap="round"/>
<path opacity="0.15" d="M191.359 149.968L189.408 151.269L186.59 152.352" stroke="black" stroke-width="0.85" stroke-miterlimit="10" stroke-linecap="round"/>
<path opacity="0.15" d="M190.6 151.919L189.19 152.786L187.022 153.87" stroke="black" stroke-width="0.85" stroke-miterlimit="10" stroke-linecap="round"/>
<path opacity="0.15" d="M187.346 155.063L185.985 155.364C184.297 155.741 182.573 155.93 180.844 155.93L160.298 164.166C154.762 166.066 153.875 163.429 153.668 161.871L153.645 162.81C153.611 163.879 153.967 164.924 154.645 165.75C155.241 166.464 156.054 166.964 156.959 167.177C157.864 167.389 158.815 167.302 159.666 166.928L180.961 157.055L187.336 155.06" fill="black"/>
<path opacity="0.2" d="M154.941 138.368C154.941 135.117 156.999 133.6 156.999 133.6H156.941C156.028 133.843 155.22 134.379 154.64 135.124C154.059 135.869 153.738 136.784 153.725 137.728L153.215 153.219H154.962L154.941 138.368Z" fill="black"/>
<path opacity="0.15" d="M161.869 157.371C161.869 157.371 161.273 157.603 160.069 157.96C160.053 157.965 160.035 157.964 160.02 157.957C160.004 157.951 159.991 157.938 159.985 157.923C159.978 157.907 159.977 157.889 159.982 157.873C159.987 157.857 159.998 157.843 160.013 157.835L161.874 156.664L161.869 157.371Z" fill="black"/>
<g opacity="0.2">
<path opacity="0.2" d="M236.001 169.203C236.006 169.96 235.786 170.701 235.368 171.333C234.953 171.965 234.358 172.459 233.66 172.753C232.964 173.047 232.193 173.127 231.451 172.984C230.707 172.84 230.023 172.479 229.485 171.947C228.947 171.415 228.579 170.735 228.428 169.993C228.276 169.251 228.348 168.482 228.635 167.781C228.921 167.08 229.409 166.48 230.037 166.057C230.664 165.634 231.403 165.406 232.16 165.403C233.173 165.399 234.147 165.797 234.866 166.509C235.585 167.221 235.993 168.19 236.001 169.203Z" fill="black"/>
</g>
<path d="M316.866 267.24H47.671C47.6154 267.25 47.5586 267.245 47.5045 267.23C47.4505 267.217 47.4002 267.189 47.3574 267.153C47.3145 267.118 47.2801 267.072 47.2564 267.021C47.2329 266.97 47.2207 266.914 47.2207 266.857C47.2207 266.801 47.2329 266.745 47.2564 266.694C47.2801 266.643 47.3145 266.597 47.3574 266.562C47.4002 266.526 47.4505 266.498 47.5045 266.485C47.5586 266.47 47.6154 266.465 47.671 266.475H316.866C316.922 266.465 316.978 266.47 317.034 266.485C317.088 266.498 317.136 266.526 317.18 266.562C317.223 266.597 317.259 266.643 317.282 266.694C317.305 266.745 317.317 266.801 317.317 266.857C317.317 266.914 317.305 266.97 317.282 267.021C317.259 267.072 317.223 267.118 317.18 267.153C317.136 267.189 317.088 267.217 317.034 267.23C316.978 267.245 316.922 267.25 316.866 267.24Z" fill="#B2B6BB"/>
<path d="M74.0699 229.176C72.3469 228.098 70.4 227.428 68.3783 227.218C67.4476 227.121 66.4327 227.149 65.6855 227.712C65.5996 227.762 65.5284 227.833 65.4795 227.919C65.4305 228.005 65.4058 228.103 65.4076 228.202C65.4476 228.342 65.5384 228.462 65.6626 228.539C67.978 230.306 71.4791 230.53 74.0597 229.176" fill="#0057E0"/>
<path d="M73.92 229.016C72.6322 227.996 71.3368 226.996 70.2454 225.78C69.154 224.563 68.2666 223.12 67.9504 221.518C67.851 221.031 67.8204 220.478 68.1315 220.09C71.064 222.385 73.3641 225.341 73.9302 229.016" fill="#0057E0"/>
<path d="M74.0401 229.153C73.8182 227.549 73.7392 225.902 74.1064 224.326C74.4736 222.75 75.3329 221.243 76.6793 220.345C77.1893 221.529 76.9675 222.895 76.6105 224.127C76.0581 226.043 75.1967 227.856 74.0605 229.495" fill="#0057E0"/>
<path d="M76.9121 234.302C75.1679 234.513 73.6507 235.431 72.3476 236.597C71.04 237.79 70.1289 239.354 69.7365 241.08C71.4475 240.975 72.8984 239.769 73.9516 238.415C75.0047 237.061 75.7366 235.579 76.8892 234.314" fill="#0057E0"/>
<path d="M77.5356 235.123C76.8494 233.38 76.6087 231.493 76.8359 229.634C77.0631 227.774 77.7506 226.001 78.8361 224.474C79.8281 228.008 79.4634 232.002 77.5356 235.123Z" fill="#0057E0"/>
<path d="M81.3309 239.644C79.7371 239.544 78.1492 239.916 76.7654 240.713C75.3815 241.509 74.2625 242.696 73.5483 244.124C73.4858 244.212 73.4478 244.314 73.4384 244.422C73.4289 244.529 73.4483 244.637 73.4947 244.734C73.5615 244.798 73.6426 244.845 73.7314 244.871C73.8201 244.898 73.9137 244.903 74.0047 244.887C75.5347 244.787 76.899 243.867 78.0184 242.814C79.1379 241.76 80.1196 240.547 81.3589 239.639" fill="#0057E0"/>
<path d="M81.2096 239.397C80.3931 236.766 80.3428 233.958 81.0642 231.3C81.3498 230.257 81.8292 229.158 82.7932 228.671C82.8301 228.647 82.872 228.63 82.9158 228.622C82.9597 228.614 83.0048 228.615 83.0482 228.625C83.1272 228.666 83.1876 228.735 83.2165 228.819C83.5403 229.548 83.6806 230.346 83.6245 231.142C83.5666 231.934 83.4444 232.721 83.2598 233.493C82.9564 234.931 82.7957 236.474 82.0052 237.714C81.8162 238.012 81.6459 238.322 81.4952 238.642C81.3447 238.958 81.3447 239.068 81.207 239.317" fill="#0057E0"/>
<path d="M91.2602 240.893C90.5157 238.063 91.3061 234.631 93.0886 232.31C93.2212 232.139 93.3946 231.956 93.5986 231.976C93.9275 232.004 94.0117 232.443 93.9989 232.772C93.8666 235.682 92.9175 238.497 91.2602 240.893Z" fill="#0057E0"/>
<path d="M92.1624 241.513C95.6023 242.408 99.5574 241.539 102.408 239.43C100.696 238.569 98.7391 238.328 96.8697 238.749C95.0158 239.172 93.3226 240.001 92.17 241.513" fill="#0057E0"/>
<path d="M92.9254 239.629C94.8532 236.487 98.5354 234.437 102.225 234.251C101.802 235.748 100.573 236.91 99.1857 237.614C97.7985 238.318 96.2481 238.621 94.7206 238.92C94.1265 239.034 93.3105 239.162 92.9356 239.629" fill="#0057E0"/>
<path d="M91.4486 230.479C91.9586 228.694 92.4941 226.889 92.6369 225.032C92.7797 223.176 92.5171 221.241 91.5532 219.647C89.7529 223.128 89.5718 227.197 91.3951 230.668" fill="#0057E0"/>
<g opacity="0.4">
<path opacity="0.4" d="M91.4486 230.479C91.9586 228.694 92.4941 226.889 92.6369 225.032C92.7797 223.176 92.5171 221.241 91.5532 219.647C89.7529 223.128 89.5718 227.197 91.3951 230.668" fill="white"/>
</g>
<path d="M97.5074 227.419C99.6112 223.594 103.905 220.534 108.248 220.111C106.573 224.283 102.003 227.506 97.5074 227.419Z" fill="#0057E0"/>
<g opacity="0.2">
<path opacity="0.2" d="M97.5074 227.419C99.6112 223.594 103.905 220.534 108.248 220.111C106.573 224.283 102.003 227.506 97.5074 227.419Z" fill="black"/>
</g>
<path d="M96.1808 228.166C99.3198 228.646 101.995 230.65 104.927 231.866C105.542 232.162 106.223 232.292 106.903 232.244C107.577 232.155 108.242 231.703 108.393 231.043C108.439 230.766 108.416 230.481 108.327 230.215C108.238 229.948 108.086 229.707 107.883 229.513C107.467 229.129 106.979 228.834 106.447 228.643C103.252 227.312 99.8171 227.279 96.4613 228.085" fill="#0057E0"/>
<path d="M94.366 230.37C95.0774 230.571 95.3197 230.941 95.8832 231.42C97.8021 233.05 100.071 234.216 102.513 234.827C102.768 234.888 103.1 234.914 103.225 234.684C103.35 234.455 103.197 234.243 103.054 234.065C102.034 232.79 100.58 231.917 99.0503 231.346C97.5203 230.775 96.1943 230.089 94.366 230.237" fill="#0057E0"/>
<path d="M92.3159 217.074C93.6032 218.26 95.1242 219.165 96.7815 219.728C98.4387 220.292 100.196 220.503 101.94 220.348C102.1 220.35 102.256 220.294 102.378 220.19C102.62 219.935 102.33 219.519 102.047 219.3C99.2188 217.094 95.7916 216.181 92.3159 217.074Z" fill="#0057E0"/>
<path d="M94.7463 216.184C96.4497 214.93 98.4255 214.097 100.512 213.752C102.599 213.407 104.738 213.561 106.754 214.2C105.242 215.692 103.144 216.495 101.032 216.712C98.922 216.906 96.7942 216.726 94.7463 216.181" fill="#0057E0"/>
<path d="M93.7816 210.074C93.5037 207.251 93.6822 205.023 93.4884 202.187C93.4705 201.96 93.4221 201.677 93.2104 201.605C92.9146 201.491 92.6698 201.86 92.5729 202.156C92.1614 203.471 92.0561 204.862 92.2646 206.224C92.4732 207.586 92.9904 208.882 93.7765 210.013" fill="#0057E0"/>
<path d="M93.579 210.388C95.494 209.205 96.9297 207.659 98.2557 205.841C99.1813 204.566 99.9591 203.064 99.75 201.506C98.452 201.481 97.2178 202.197 96.3763 203.181C95.5348 204.166 95.0299 205.4 94.6551 206.642C94.2802 207.884 94.0176 209.161 93.579 210.383" fill="#0057E0"/>
<g opacity="0.2">
<path opacity="0.2" d="M93.579 210.388C95.494 209.205 96.9297 207.659 98.2557 205.841C99.1813 204.566 99.9591 203.064 99.75 201.506C98.452 201.481 97.2178 202.197 96.3763 203.181C95.5348 204.166 95.0299 205.4 94.6551 206.642C94.2802 207.884 94.0176 209.161 93.579 210.383" fill="black"/>
</g>
<path d="M98.1738 209.1C102.384 207.541 106.283 205.242 109.684 202.312C108.31 201.759 106.737 202.09 105.362 202.646C102.221 203.921 99.6553 206.053 98.1151 209.069" fill="#0057E0"/>
<path d="M94.8703 211.933C96.9945 212.165 99.1518 212.316 101.261 211.964C103.37 211.612 105.292 210.796 107.228 209.98C107.397 209.933 107.542 209.823 107.633 209.674C107.663 209.584 107.665 209.487 107.639 209.396C107.613 209.305 107.561 209.224 107.488 209.164C107.338 209.047 107.164 208.966 106.978 208.927C104.871 208.338 102.599 208.613 100.529 209.312C98.5554 209.986 96.6579 210.865 94.8678 211.936" fill="#0057E0"/>
<path d="M82.7354 217.171C81.287 214.243 81.3814 210.829 82.6334 207.812C83.5157 209.156 83.6228 210.872 83.4622 212.466C83.3015 214.06 82.8145 215.71 82.7813 217.311" fill="#0057E0"/>
<path d="M76.944 214.248C75.1305 214.226 73.3319 214.582 71.6635 215.294C69.995 216.006 68.4933 217.058 67.254 218.382C69.062 218.665 70.9209 218.198 72.5657 217.395C74.2104 216.592 75.669 215.467 77.1149 214.35" fill="#0057E0"/>
<g opacity="0.2">
<path opacity="0.2" d="M76.944 214.248C75.1305 214.226 73.3319 214.582 71.6635 215.294C69.995 216.006 68.4933 217.058 67.254 218.382C69.062 218.665 70.9209 218.198 72.5657 217.395C74.2104 216.592 75.669 215.467 77.1149 214.35" fill="black"/>
</g>
<path d="M73.0504 212.948C71.2807 212.803 69.5773 212.583 67.8739 213.106C66.1705 213.629 64.6227 214.812 63.9291 216.452C65.584 216.638 67.2645 216.222 68.7741 215.536C70.2837 214.85 71.6734 213.894 73.0428 212.948" fill="#0057E0"/>
<path d="M78.8166 213.007C77.2254 211.964 75.5883 210.9 73.7344 210.457C71.8806 210.013 69.7284 210.344 68.4355 211.732C69.9375 212.614 71.7505 212.718 73.4998 212.716C75.2491 212.713 77.3758 212.696 79.0155 213.277" fill="#0057E0"/>
<path d="M78.826 213.091C76.1025 210.416 75.0698 205.612 76.1663 201.957C78.3152 205.249 79.2551 209.184 78.826 213.091Z" fill="#0057E0"/>
<path d="M86.3153 205.515C86.8253 204.319 87.19 203.067 87.6489 201.85C88.1079 200.634 88.6842 199.441 89.5538 198.474C90.4233 197.508 91.6295 196.791 92.9274 196.727C92.5085 198.569 91.7098 200.303 90.5827 201.819C89.4556 203.334 88.0248 204.598 86.3816 205.53" fill="#0057E0"/>
<g opacity="0.2">
<path opacity="0.2" d="M86.3153 205.515C86.8253 204.319 87.19 203.067 87.6489 201.85C88.1079 200.634 88.6842 199.441 89.5538 198.474C90.4233 197.508 91.6295 196.791 92.9274 196.727C92.5085 198.569 91.7098 200.303 90.5827 201.819C89.4556 203.334 88.0248 204.598 86.3816 205.53" fill="black"/>
</g>
<path d="M84.9595 207.093C84.1103 205.923 83.1286 204.334 81.976 203.462C80.8234 202.59 79.3214 202.059 77.9164 202.396C78.6449 203.672 79.6606 204.761 80.8833 205.576C82.1058 206.392 83.5014 206.911 84.9595 207.093Z" fill="#0057E0"/>
<path d="M85.2285 205.612C84.6726 204.196 84.1116 202.766 83.8872 201.261C83.6628 199.757 83.7979 198.148 84.568 196.837C86.0623 199.662 86.5443 202.702 85.305 205.642" fill="#0057E0"/>
<path d="M86.3273 196.837C87.1739 194.032 89.7392 191.972 92.5085 191.026C92.8512 190.885 93.2232 190.829 93.5922 190.865C93.7761 190.885 93.9502 190.958 94.0923 191.077C94.2343 191.195 94.3381 191.353 94.3904 191.531C94.4924 192.007 94.0971 192.433 93.7274 192.749C91.5634 194.595 89.0479 195.983 86.3324 196.829" fill="#0057E0"/>
<path d="M86.3587 194.545C86.4658 192.739 86.578 190.908 87.167 189.19C87.7561 187.471 88.8857 185.875 90.533 185.125C90.8135 186.948 90.0077 188.764 89.0387 190.335C88.0697 191.905 86.8967 193.395 86.3153 195.136" fill="#0057E0"/>
<path d="M86.3155 195.789C85.6142 193.749 85.5505 191.153 84.3189 189.376C83.4646 188.131 82.0978 187.285 81.3609 185.969C80.8713 187.198 81.0217 188.616 81.5317 189.837C82.0417 191.059 82.8883 192.107 83.7936 193.073C84.6988 194.04 85.474 194.766 86.3155 195.789Z" fill="#0057E0"/>
<path d="M86.3283 255.91C86.2747 255.91 86.2263 242.291 86.2238 225.496C86.2212 208.702 86.2594 195.078 86.3155 195.078C86.3716 195.078 86.415 208.695 86.4201 225.496C86.4252 242.298 86.3818 255.91 86.3283 255.91Z" fill="#61656D"/>
<path d="M98.2289 215.115C98.0657 215.196 97.8948 215.26 97.7189 215.307L96.3113 215.784C95.123 216.189 93.491 216.773 91.7213 217.5C89.9516 218.226 88.3119 218.864 87.371 219.68C86.9936 219.991 86.6925 220.384 86.4913 220.83C86.3561 221.151 86.3332 221.34 86.3153 221.34C86.2975 221.34 86.3153 221.292 86.3153 221.197C86.3355 221.062 86.3689 220.928 86.4148 220.799C86.5935 220.325 86.887 219.902 87.269 219.568C87.8379 219.087 88.4736 218.692 89.156 218.395C89.921 218.043 90.7472 217.676 91.6371 217.311C93.4221 216.582 95.0592 216.016 96.2603 215.643C96.8595 215.455 97.3491 215.317 97.6908 215.228C97.8665 215.174 98.0466 215.136 98.2289 215.115Z" fill="#61656D"/>
<path d="M102.131 205.53C102.091 205.587 102.043 205.638 101.989 205.683L101.55 206.094C101.145 206.463 100.594 206.966 99.9206 207.575L94.4891 212.42C92.37 214.305 90.5366 216.107 89.2692 217.467C88.6317 218.145 88.1319 218.706 87.7902 219.099L87.395 219.555C87.3534 219.611 87.3045 219.662 87.2496 219.705C87.2496 219.705 87.2828 219.642 87.3644 219.53C87.446 219.417 87.5684 219.259 87.7316 219.055C88.0554 218.647 88.5425 218.071 89.1647 217.38C90.8051 215.589 92.5389 213.887 94.359 212.28C96.4858 210.398 98.4212 208.71 99.8262 207.488L101.499 206.053L101.961 205.67C102.011 205.616 102.069 205.569 102.131 205.53Z" fill="#61656D"/>
<path d="M92.2012 214.333C92.1451 214.307 92.5888 213.285 93.03 211.992C93.4711 210.699 93.6828 209.607 93.7414 209.618C93.8001 209.628 93.6675 210.745 93.2161 212.055C93.0269 212.613 92.8063 213.16 92.5557 213.693C92.4674 213.921 92.3481 214.137 92.2012 214.333Z" fill="#61656D"/>
<path d="M86.3411 222.577C86.2187 222.462 86.1093 222.335 86.0147 222.197L85.1783 221.123C84.4745 220.215 83.5029 218.961 82.4141 217.589C81.3252 216.217 80.3231 214.985 79.5963 214.093L78.7421 213.035C78.6312 212.91 78.5322 212.775 78.4463 212.632C78.5774 212.736 78.6962 212.855 78.8007 212.986C79.0175 213.221 79.3286 213.57 79.7034 214.006C80.4684 214.876 81.4757 216.095 82.5671 217.469C83.6585 218.844 84.6071 220.111 85.2879 221.039C85.6271 221.506 85.8948 221.886 86.0759 222.151C86.1792 222.283 86.2679 222.426 86.3411 222.577Z" fill="#61656D"/>
<path d="M83.7291 219.226C83.6985 219.259 83.0024 218.433 82.6377 217.186C82.4281 216.519 82.3417 215.821 82.3827 215.123H82.4694C82.4286 215.281 82.4006 215.363 82.3853 215.36C82.37 215.358 82.37 215.271 82.3853 215.105H82.472C82.5143 215.785 82.6316 216.458 82.8213 217.112C83.1783 218.339 83.7827 219.193 83.7291 219.226Z" fill="#0057E0"/>
<path d="M80.3615 214.988C80.1257 214.809 79.8686 214.66 79.5965 214.544C78.9096 214.341 78.1877 214.284 77.4775 214.376C76.7576 214.431 76.0436 214.546 75.3431 214.72C75.0552 214.809 74.7625 214.88 74.4659 214.932C74.7258 214.773 75.0088 214.656 75.3049 214.585C76.0064 214.37 76.7301 214.234 77.4622 214.18C78.3139 214.106 79.1223 214.18 79.6476 214.414C79.9451 214.516 80.1978 214.719 80.3615 214.988Z" fill="#61656D"/>
<path d="M79.5627 213.96C79.5474 213.991 79.119 213.782 78.3948 213.534C76.5004 212.888 74.4724 212.733 72.5017 213.086C71.7367 213.221 71.2905 213.361 71.2803 213.341C71.3769 213.282 71.4817 213.238 71.5914 213.211C71.8798 213.107 72.1746 213.022 72.4737 212.956C74.4647 212.522 76.5391 212.68 78.4407 213.412C78.7275 213.52 79.0068 213.646 79.2771 213.789C79.3803 213.832 79.4767 213.889 79.5627 213.96Z" fill="#61656D"/>
<path d="M86.3163 209.61C86.2627 209.623 85.8802 208.297 85.462 206.647C85.0438 204.997 84.7481 203.651 84.7991 203.635C84.8501 203.62 85.2351 204.949 85.6533 206.598C86.0715 208.248 86.3673 209.61 86.3163 209.61Z" fill="#61656D"/>
<path d="M86.369 209.61C86.3104 209.628 86.0656 208.743 85.423 207.825C84.7804 206.907 84.0026 206.435 84.0332 206.389C84.2308 206.439 84.4142 206.534 84.5687 206.667C84.966 206.955 85.311 207.308 85.5887 207.713C86.2492 208.674 86.4149 209.61 86.369 209.61Z" fill="#61656D"/>
<path d="M86.3288 248.65C86.3084 248.65 86.2676 248.324 86.1146 247.745C85.8879 246.932 85.583 246.142 85.2043 245.386C84.2633 243.464 82.5497 241.026 80.3746 238.586C79.2959 237.354 78.2504 236.191 77.363 235.079C76.5669 234.101 75.8473 233.063 75.2108 231.974C74.7837 231.241 74.4196 230.473 74.122 229.679C74.0225 229.393 73.9486 229.168 73.9103 229.018C73.8826 228.942 73.8637 228.864 73.8542 228.783C73.8695 228.783 73.969 229.095 74.1934 229.65C74.5155 230.432 74.8954 231.188 75.3307 231.912C75.9797 232.984 76.7067 234.007 77.5058 234.972C78.3958 236.074 79.4438 237.229 80.5225 238.463C82.7053 240.911 84.4138 243.38 85.3292 245.348C85.7023 246.114 85.9905 246.919 86.1886 247.748C86.2409 247.973 86.2809 248.201 86.3084 248.431C86.3235 248.503 86.3301 248.577 86.3288 248.65Z" fill="#61656D"/>
<path d="M97.0806 236.505C96.8993 236.621 96.7111 236.727 96.5171 236.821C96.0073 237.107 95.519 237.43 95.0559 237.788C94.3723 238.321 93.7302 238.905 93.1358 239.537C92.4626 240.251 91.769 241.067 91.0601 241.962C89.6423 243.747 88.3188 245.313 87.5258 246.567C87.1229 247.189 86.8296 247.715 86.6384 248.097C86.5486 248.293 86.4446 248.482 86.3273 248.663C86.3273 248.663 86.3273 248.607 86.3783 248.505C86.4293 248.403 86.4777 248.25 86.5695 248.061C86.8161 247.526 87.0956 247.007 87.4059 246.506C88.1709 245.231 89.4918 243.627 90.9071 241.852C91.616 240.965 92.3198 240.136 93.0057 239.425C93.6119 238.792 94.2695 238.211 94.9718 237.688C95.4479 237.338 95.953 237.029 96.4814 236.765C96.6701 236.671 96.8205 236.615 96.9225 236.571C97.0245 236.528 97.0781 236.497 97.0806 236.505Z" fill="#61656D"/>
<path d="M97.2928 240.445C96.9006 240.531 96.5025 240.589 96.1019 240.618C95.1449 240.716 94.1991 240.902 93.2765 241.174C92.3649 241.471 91.5104 241.922 90.7495 242.505C90.1655 242.954 89.8901 243.329 89.8646 243.306C89.8391 243.283 89.9105 243.199 90.0406 243.033C90.2259 242.801 90.4335 242.587 90.6602 242.395C91.4122 241.768 92.2779 241.291 93.2102 240.99C94.1448 240.712 95.1082 240.541 96.0815 240.48C96.4832 240.431 96.8889 240.419 97.2928 240.445Z" fill="#61656D"/>
<path d="M90.2089 242.87C90.1477 242.834 90.6832 242.015 91.0989 240.911C91.5145 239.807 91.5834 238.823 91.6522 238.833C91.6828 239.046 91.6757 239.262 91.6318 239.473C91.5732 239.985 91.4569 240.489 91.285 240.975C91.104 241.458 90.8722 241.92 90.594 242.355C90.3823 242.691 90.2395 242.885 90.2089 242.87Z" fill="#61656D"/>
<path d="M100.565 225.93C100.506 225.97 100.442 226.003 100.376 226.029L99.815 226.284C99.56 226.389 99.2719 226.524 98.9378 226.7C98.6038 226.876 98.2085 227.052 97.798 227.299L97.1477 227.669C96.9233 227.797 96.7015 227.952 96.4618 228.1C95.9849 228.391 95.503 228.748 94.9904 229.12C93.9052 229.943 92.8823 230.846 91.9304 231.82C90.9887 232.809 90.1212 233.866 89.3345 234.982C88.9877 235.508 88.646 236.002 88.3706 236.49C88.2304 236.729 88.085 236.959 87.9626 237.188C87.8402 237.418 87.728 237.64 87.6158 237.851C87.3838 238.267 87.2206 238.667 87.0574 239.009C86.8942 239.351 86.7692 239.652 86.6723 239.901L86.4377 240.468C86.4135 240.535 86.3819 240.6 86.3434 240.661C86.3531 240.59 86.3719 240.521 86.3995 240.455L86.6009 239.873C86.6876 239.618 86.7998 239.312 86.9554 238.966C87.1109 238.619 87.2665 238.201 87.4909 237.787C87.6005 237.573 87.7127 237.349 87.83 237.117C87.9473 236.885 88.085 236.65 88.2304 236.405C88.5007 235.911 88.8398 235.411 89.1866 234.875C89.9626 233.742 90.8263 232.671 91.7698 231.673C92.7342 230.691 93.7725 229.785 94.8757 228.962C95.3857 228.6 95.8957 228.243 96.3674 227.957C96.6097 227.809 96.8341 227.659 97.0636 227.531L97.724 227.172C98.1397 226.932 98.54 226.761 98.8817 226.596C99.2234 226.43 99.5269 226.305 99.7768 226.211L100.353 225.989C100.42 225.959 100.492 225.939 100.565 225.93Z" fill="#61656D"/>
<path d="M92.0527 231.627C92.1341 231.352 92.2978 231.109 92.5219 230.931C93.0454 230.475 93.7128 230.219 94.4064 230.206C95.0877 230.204 95.7627 230.335 96.3928 230.594C96.6596 230.678 96.9123 230.801 97.1425 230.959C96.8712 230.905 96.605 230.827 96.3469 230.727C95.725 230.513 95.0719 230.403 94.414 230.403C93.762 230.416 93.1311 230.638 92.6137 231.035C92.4138 231.219 92.2264 231.417 92.0527 231.627Z" fill="#0057E0"/>
<g opacity="0.2">
<path opacity="0.2" d="M74.0699 229.176C72.3469 228.098 70.4 227.428 68.3783 227.218C67.4476 227.121 66.4327 227.149 65.6855 227.712C65.5996 227.762 65.5284 227.833 65.4795 227.919C65.4305 228.005 65.4058 228.103 65.4076 228.202C65.4476 228.342 65.5384 228.462 65.6626 228.539C67.978 230.306 71.4791 230.53 74.0597 229.176" fill="black"/>
</g>
<g opacity="0.4">
<path opacity="0.4" d="M74.0401 229.153C73.8182 227.549 73.7392 225.902 74.1064 224.326C74.4736 222.75 75.3329 221.243 76.6793 220.345C77.1893 221.529 76.9675 222.895 76.6105 224.127C76.0581 226.043 75.1967 227.856 74.0605 229.495" fill="white"/>
</g>
<g opacity="0.2">
<path opacity="0.2" d="M77.5356 235.123C76.8494 233.38 76.6087 231.493 76.8359 229.634C77.0631 227.774 77.7506 226.001 78.8361 224.474C79.8281 228.008 79.4634 232.002 77.5356 235.123Z" fill="black"/>
</g>
<g opacity="0.2">
<path opacity="0.2" d="M81.3309 239.644C79.7371 239.544 78.1492 239.916 76.7654 240.713C75.3815 241.509 74.2625 242.696 73.5483 244.124C73.4858 244.212 73.4478 244.314 73.4384 244.422C73.4289 244.529 73.4483 244.637 73.4947 244.734C73.5615 244.798 73.6426 244.845 73.7314 244.871C73.8201 244.898 73.9137 244.903 74.0047 244.887C75.5347 244.787 76.899 243.867 78.0184 242.814C79.1379 241.76 80.1196 240.547 81.3589 239.639" fill="black"/>
</g>
<g opacity="0.4">
<path opacity="0.4" d="M92.1624 241.513C95.6023 242.408 99.5574 241.539 102.408 239.43C100.696 238.569 98.7391 238.328 96.8697 238.749C95.0158 239.172 93.3226 240.001 92.17 241.513" fill="white"/>
</g>
<g opacity="0.2">
<path opacity="0.2" d="M92.9254 239.629C94.8532 236.487 98.5354 234.437 102.225 234.251C101.802 235.748 100.573 236.91 99.1857 237.614C97.7985 238.318 96.2481 238.621 94.7206 238.92C94.1265 239.034 93.3105 239.162 92.9356 239.629" fill="black"/>
</g>
<g opacity="0.4">
<path opacity="0.4" d="M96.1808 228.166C99.3198 228.646 101.995 230.65 104.927 231.866C105.542 232.162 106.223 232.292 106.903 232.244C107.577 232.155 108.242 231.703 108.393 231.043C108.439 230.766 108.416 230.481 108.327 230.215C108.238 229.948 108.086 229.707 107.883 229.513C107.467 229.129 106.979 228.834 106.447 228.643C103.252 227.312 99.8171 227.279 96.4613 228.085" fill="white"/>
</g>
<g opacity="0.2">
<path opacity="0.2" d="M94.7463 216.184C96.4497 214.93 98.4255 214.097 100.512 213.752C102.599 213.407 104.738 213.561 106.754 214.2C105.242 215.692 103.144 216.495 101.032 216.712C98.922 216.906 96.7942 216.726 94.7463 216.181" fill="black"/>
</g>
<g opacity="0.4">
<path opacity="0.4" d="M93.7816 210.074C93.5037 207.251 93.6822 205.023 93.4884 202.187C93.4705 201.96 93.4221 201.677 93.2104 201.605C92.9146 201.491 92.6698 201.86 92.5729 202.156C92.1614 203.471 92.0561 204.862 92.2646 206.224C92.4732 207.586 92.9904 208.882 93.7765 210.013" fill="white"/>
</g>
<g opacity="0.4">
<path opacity="0.4" d="M98.1738 209.1C102.384 207.541 106.283 205.242 109.684 202.312C108.31 201.759 106.737 202.09 105.362 202.646C102.221 203.921 99.6553 206.053 98.1151 209.069" fill="white"/>
</g>
<g opacity="0.4">
<path opacity="0.4" d="M82.7354 217.171C81.287 214.243 81.3814 210.829 82.6334 207.812C83.5157 209.156 83.6228 210.872 83.4622 212.466C83.3015 214.06 82.8145 215.71 82.7813 217.311" fill="white"/>
</g>
<g opacity="0.4">
<path opacity="0.4" d="M73.0504 212.948C71.2807 212.803 69.5773 212.583 67.8739 213.106C66.1705 213.629 64.6227 214.812 63.9291 216.452C65.584 216.638 67.2645 216.222 68.7741 215.536C70.2837 214.85 71.6734 213.894 73.0428 212.948" fill="white"/>
</g>
<g opacity="0.2">
<path opacity="0.2" d="M78.826 213.091C76.1025 210.416 75.0698 205.612 76.1663 201.957C78.3152 205.249 79.2551 209.184 78.826 213.091Z" fill="black"/>
</g>
<g opacity="0.2">
<path opacity="0.2" d="M84.9595 207.093C84.1103 205.923 83.1286 204.334 81.976 203.462C80.8234 202.59 79.3214 202.059 77.9164 202.396C78.6449 203.672 79.6606 204.761 80.8833 205.576C82.1058 206.392 83.5014 206.911 84.9595 207.093Z" fill="black"/>
</g>
<g opacity="0.4">
<path opacity="0.4" d="M86.3273 196.837C87.1739 194.032 89.7392 191.972 92.5085 191.026C92.8512 190.885 93.2232 190.829 93.5922 190.865C93.7761 190.885 93.9502 190.958 94.0923 191.077C94.2343 191.195 94.3381 191.353 94.3904 191.531C94.4924 192.007 94.0971 192.433 93.7274 192.749C91.5634 194.595 89.0479 195.983 86.3324 196.829" fill="white"/>
</g>
<g opacity="0.2">
<path opacity="0.2" d="M86.3155 195.789C85.6142 193.749 85.5505 191.153 84.3189 189.376C83.4646 188.131 82.0978 187.285 81.3609 185.969C80.8713 187.198 81.0217 188.616 81.5317 189.837C82.0417 191.059 82.8883 192.107 83.7936 193.073C84.6988 194.04 85.474 194.766 86.3155 195.789Z" fill="black"/>
</g>
<g opacity="0.4">
<path opacity="0.4" d="M83.7291 219.226C83.6985 219.259 83.0024 218.433 82.6377 217.186C82.4281 216.519 82.3417 215.821 82.3827 215.123H82.4694C82.4286 215.281 82.4006 215.363 82.3853 215.36C82.37 215.358 82.37 215.271 82.3853 215.105H82.472C82.5143 215.785 82.6316 216.458 82.8213 217.112C83.1783 218.339 83.7827 219.193 83.7291 219.226Z" fill="white"/>
</g>
<g opacity="0.4">
<path opacity="0.4" d="M92.0527 231.627C92.1341 231.352 92.2978 231.109 92.5219 230.931C93.0454 230.475 93.7128 230.219 94.4064 230.206C95.0877 230.204 95.7627 230.335 96.3928 230.594C96.6596 230.678 96.9123 230.801 97.1425 230.959C96.8712 230.905 96.605 230.827 96.3469 230.727C95.725 230.513 95.0719 230.403 94.414 230.403C93.762 230.416 93.1311 230.638 92.6137 231.035C92.4138 231.219 92.2264 231.417 92.0527 231.627Z" fill="white"/>
</g>
<path d="M90.7824 232.94C90.7263 232.909 91.2082 232.206 91.3153 231.198C91.4224 230.191 91.1368 229.395 91.1955 229.378C91.3107 229.527 91.387 229.702 91.4173 229.888C91.6481 230.765 91.5397 231.698 91.1139 232.499C90.9481 232.797 90.8002 232.953 90.7824 232.94Z" fill="#61656D"/>
<path d="M76.9221 250.601C77.2154 255.808 78.7836 261.1 81.1959 266.452H91.6866C93.9816 261.153 95.4479 255.87 95.708 250.601H76.9221Z" fill="#B2B6BB"/>
<path d="M96.5788 248.944H76.1711V250.668H96.5788V248.944Z" fill="#B2B6BB"/>
<path opacity="0.2" d="M76.9221 250.601C76.9374 250.856 76.9578 251.129 76.9782 251.394H91.6942C91.6942 251.394 91.7835 260.391 88.721 266.452H91.6866C93.9816 261.176 95.4351 255.91 95.7028 250.668L76.9221 250.601Z" fill="black"/>
<path opacity="0.2" d="M91.7063 248.944V250.652L96.5793 250.668V248.944H91.7063Z" fill="black"/>
<path d="M238.155 199.114H256.439V203.895H238.155C237.533 203.875 236.947 203.614 236.513 203.168C236.082 202.722 235.84 202.126 235.84 201.505C235.84 200.884 236.082 200.287 236.513 199.841C236.947 199.395 237.533 199.134 238.155 199.114Z" fill="#B2B6BB"/>
<path d="M254.916 203.895H264.163V203.212H261.299V199.826H264.163V199.117H254.916C254.284 199.117 253.675 199.368 253.228 199.817C252.78 200.265 252.527 200.872 252.527 201.506C252.527 202.14 252.78 202.747 253.228 203.196C253.675 203.644 254.284 203.895 254.916 203.895Z" fill="#868A91"/>
<path d="M263.479 203.187H254.942C254.496 203.187 254.067 203.01 253.754 202.694C253.437 202.379 253.261 201.952 253.261 201.506C253.261 201.06 253.437 200.633 253.754 200.318C254.067 200.003 254.496 199.826 254.942 199.826H263.479V203.187Z" fill="white"/>
<path d="M235.424 195.437H250.686V199.114H235.424C235.343 199.114 235.261 199.098 235.185 199.067C235.108 199.035 235.037 198.989 234.978 198.931C234.919 198.872 234.873 198.803 234.843 198.726C234.81 198.649 234.794 198.567 234.794 198.484V196.067C234.797 195.9 234.863 195.74 234.981 195.622C235.098 195.504 235.259 195.438 235.424 195.437Z" fill="#DADDDF"/>
<path d="M244.092 196.671H238.839C238.772 196.671 238.706 196.698 238.66 196.746C238.612 196.794 238.584 196.859 238.584 196.926V197.74C238.584 197.807 238.612 197.872 238.66 197.92C238.706 197.968 238.772 197.995 238.839 197.995H244.092C244.161 197.995 244.224 197.968 244.273 197.92C244.321 197.872 244.347 197.807 244.347 197.74V196.926C244.347 196.859 244.321 196.794 244.273 196.746C244.224 196.698 244.161 196.671 244.092 196.671Z" fill="#B2B6BB"/>
<path d="M256.597 199.114H248.297C248.128 199.114 247.968 199.048 247.848 198.931C247.789 198.872 247.743 198.802 247.713 198.726C247.68 198.649 247.664 198.567 247.664 198.484V196.067C247.664 195.9 247.733 195.74 247.85 195.621C247.97 195.503 248.131 195.437 248.297 195.437H256.597V199.114Z" fill="#B2B6BB"/>
<path d="M256.597 198.563H248.531C248.45 198.563 248.368 198.53 248.309 198.472C248.251 198.413 248.218 198.333 248.218 198.25V196.279C248.218 196.195 248.251 196.114 248.309 196.054C248.368 195.996 248.45 195.963 248.531 195.962H256.597V198.563Z" fill="white"/>
<path d="M261.299 195.437H243.253V191.76H261.299C261.529 191.76 261.748 191.851 261.911 192.014C262.074 192.176 262.166 192.397 262.166 192.627V194.598C262.161 194.822 262.069 195.036 261.911 195.192C261.75 195.353 261.534 195.445 261.307 195.447" fill="#868A91"/>
<path d="M237.079 192.311H245.379C245.464 192.312 245.545 192.345 245.604 192.404C245.663 192.463 245.696 192.543 245.696 192.627V194.598C245.696 194.64 245.688 194.681 245.673 194.719C245.657 194.757 245.634 194.792 245.604 194.821C245.573 194.85 245.54 194.873 245.502 194.889C245.464 194.904 245.423 194.912 245.379 194.912H237.079V192.311Z" fill="white"/>
<path d="M245.617 191.76H236.475V192.311H245.379C245.42 192.308 245.461 192.313 245.499 192.326C245.538 192.339 245.571 192.36 245.601 192.387C245.632 192.414 245.655 192.447 245.673 192.484C245.688 192.521 245.696 192.561 245.696 192.601V194.598C245.696 194.638 245.688 194.678 245.673 194.715C245.655 194.752 245.629 194.785 245.601 194.812C245.571 194.838 245.538 194.858 245.499 194.871C245.461 194.884 245.42 194.889 245.379 194.886H236.475V195.437H245.617C245.698 195.437 245.782 195.421 245.859 195.39C245.935 195.358 246.004 195.312 246.063 195.254C246.122 195.195 246.167 195.125 246.198 195.049C246.231 194.972 246.246 194.89 246.246 194.807V192.39C246.246 192.223 246.18 192.063 246.063 191.944C246.004 191.885 245.935 191.839 245.859 191.807C245.782 191.776 245.698 191.76 245.617 191.76Z" fill="#B2B6BB"/>
<path d="M177.496 84.4861V83.1964L174.58 81.9745L177.496 80.7527V79.4533L173 81.3539V82.5952L177.496 84.4861Z" fill="white"/>
<path d="M178.664 85H180.078L183.337 77H181.933L178.664 85Z" fill="white"/>
<path d="M184.504 84.4861L189 82.5952V81.3539L184.504 79.4533V80.7527L187.42 81.9745L184.504 83.1964V84.4861Z" fill="white"/>
</svg>
