<svg width="24" height="25" viewBox="0 0 24 25" fill="none" xmlns="http://www.w3.org/2000/svg">
<path d="M23.7093 0.790624C23.5743 0.656297 23.4038 0.563294 23.2178 0.522551C23.0318 0.481807 22.838 0.495016 22.6593 0.560624L0.659268 8.56062C0.469536 8.63259 0.306188 8.76057 0.190919 8.92758C0.0756505 9.09458 0.013916 9.2927 0.013916 9.49562C0.013916 9.69855 0.0756505 9.89667 0.190919 10.0637C0.306188 10.2307 0.469536 10.3587 0.659268 10.4306L9.24927 13.8606L15.5893 7.50062L16.9993 8.91062L10.6293 15.2806L14.0693 23.8706C14.1434 24.0567 14.2716 24.2162 14.4375 24.3285C14.6033 24.4409 14.799 24.5008 14.9993 24.5006C15.2014 24.4965 15.3974 24.4312 15.5617 24.3134C15.7259 24.1956 15.8506 24.0307 15.9193 23.8406L23.9193 1.84062C23.9874 1.6637 24.0038 1.47105 23.9667 1.28515C23.9295 1.09924 23.8402 0.927734 23.7093 0.790624Z" fill="#F8F8F8"/>
</svg>
