<svg width="20" height="20" viewBox="0 0 20 20" fill="none" xmlns="http://www.w3.org/2000/svg">
<path d="M11.4645 2.46447C12.4021 1.52678 13.6739 1 15 1C16.1085 1.00017 17.1856 1.36857 18.062 2.04734C18.9384 2.7261 19.5645 3.67676 19.842 4.75C19.8748 4.87719 19.8823 5.00959 19.8639 5.13966C19.8456 5.26973 19.8018 5.39491 19.7351 5.50806C19.6684 5.6212 19.58 5.7201 19.4751 5.79911C19.3702 5.87811 19.2507 5.93567 19.1235 5.9685C18.9963 6.00133 18.8639 6.00879 18.7338 5.99045C18.6038 5.97211 18.4786 5.92833 18.3654 5.86161C18.1369 5.72686 17.9713 5.50686 17.905 5.25C17.7227 4.54277 17.2886 3.92635 16.6842 3.51633C16.0798 3.10631 15.3465 2.93087 14.622 3.02289C13.8975 3.11491 13.2314 3.46809 12.7487 4.01618C12.2659 4.56428 11.9998 5.26964 12 6V8H10V6C10 4.67392 10.5268 3.40215 11.4645 2.46447Z" fill="#F7FAFC"/>
<rect x="1" y="9" width="14" height="9" rx="2" fill="#F7FAFC"/>
</svg>
