<svg width="24" height="24" viewBox="0 0 24 24" fill="none" xmlns="http://www.w3.org/2000/svg">
<path d="M13.5909 12.002L18.0441 7.54883C18.2554 7.33786 18.3743 7.05157 18.3746 6.75295C18.3748 6.45432 18.2564 6.16783 18.0455 5.95648C17.8345 5.74514 17.5482 5.62626 17.2496 5.62599C16.951 5.62573 16.6645 5.74411 16.4531 5.95508L12 10.4082L7.54687 5.95508C7.33553 5.74373 7.04888 5.625 6.75 5.625C6.45111 5.625 6.16447 5.74373 5.95312 5.95508C5.74178 6.16642 5.62305 6.45307 5.62305 6.75195C5.62305 7.05084 5.74178 7.33748 5.95312 7.54883L10.4062 12.002L5.95312 16.4551C5.74178 16.6664 5.62305 16.9531 5.62305 17.252C5.62305 17.5508 5.74178 17.8375 5.95312 18.0488C6.16447 18.2602 6.45111 18.3789 6.75 18.3789C7.04888 18.3789 7.33553 18.2602 7.54687 18.0488L12 13.5957L16.4531 18.0488C16.6645 18.2602 16.9511 18.3789 17.25 18.3789C17.5489 18.3789 17.8355 18.2602 18.0469 18.0488C18.2582 17.8375 18.377 17.5508 18.377 17.252C18.377 16.9531 18.2582 16.6664 18.0469 16.4551L13.5909 12.002Z" fill="#2D3748"/>
</svg>
