<svg width="24" height="24" viewBox="0 0 24 24" fill="none" xmlns="http://www.w3.org/2000/svg">
<path fill-rule="evenodd" clip-rule="evenodd" d="M21.5999 12.0004C21.5999 14.5465 20.5885 16.9883 18.7881 18.7886C16.9878 20.589 14.546 21.6004 11.9999 21.6004C9.45382 21.6004 7.01203 20.589 5.21168 18.7886C3.41133 16.9883 2.3999 14.5465 2.3999 12.0004C2.3999 9.45431 3.41133 7.01251 5.21168 5.21217C7.01203 3.41182 9.45382 2.40039 11.9999 2.40039C14.546 2.40039 16.9878 3.41182 18.7881 5.21217C20.5885 7.01251 21.5999 9.45431 21.5999 12.0004ZM13.1999 7.20039C13.1999 7.51865 13.0735 7.82387 12.8484 8.04892C12.6234 8.27396 12.3182 8.40039 11.9999 8.40039C11.6816 8.40039 11.3764 8.27396 11.1514 8.04892C10.9263 7.82387 10.7999 7.51865 10.7999 7.20039C10.7999 6.88213 10.9263 6.57691 11.1514 6.35186C11.3764 6.12682 11.6816 6.00039 11.9999 6.00039C12.3182 6.00039 12.6234 6.12682 12.8484 6.35186C13.0735 6.57691 13.1999 6.88213 13.1999 7.20039ZM10.7999 10.8004C10.4816 10.8004 10.1764 10.9268 9.95137 11.1519C9.72633 11.3769 9.5999 11.6821 9.5999 12.0004C9.5999 12.3186 9.72633 12.6239 9.95137 12.8489C10.1764 13.074 10.4816 13.2004 10.7999 13.2004V16.8004C10.7999 17.1186 10.9263 17.4239 11.1514 17.6489C11.3764 17.874 11.6816 18.0004 11.9999 18.0004H13.1999C13.5182 18.0004 13.8234 17.874 14.0484 17.6489C14.2735 17.4239 14.3999 17.1186 14.3999 16.8004C14.3999 16.4821 14.2735 16.1769 14.0484 15.9519C13.8234 15.7268 13.5182 15.6004 13.1999 15.6004V12.0004C13.1999 11.6821 13.0735 11.3769 12.8484 11.1519C12.6234 10.9268 12.3182 10.8004 11.9999 10.8004H10.7999Z" fill="#E2E8F0"/>
</svg>
