<svg width="48" height="48" viewBox="0 0 48 48" fill="none" xmlns="http://www.w3.org/2000/svg">
<path d="M32 19H16C14.8954 19 14 19.8954 14 21V32C14 33.1046 14.8954 34 16 34H32C33.1046 34 34 33.1046 34 32V21C34 19.8954 33.1046 19 32 19Z" stroke="#2A4365" stroke-width="2" stroke-linecap="round" stroke-linejoin="round"/>
<path fill-rule="evenodd" clip-rule="evenodd" d="M20.2345 26.4448C20.0844 26.2987 20 26.1007 20 25.8941C20 25.6876 20.0844 25.4895 20.2345 25.3435L23.4385 22.228C23.5887 22.082 23.7924 22 24.0048 22C24.2172 22 24.4209 22.082 24.5711 22.228L27.7751 25.3435C27.9211 25.4904 28.0018 25.6871 28 25.8913C27.9981 26.0955 27.9139 26.2909 27.7654 26.4353C27.6169 26.5797 27.416 26.6616 27.206 26.6634C26.9959 26.6652 26.7936 26.5867 26.6425 26.4448L24.8058 24.6589V30.2211C24.8058 30.4277 24.7214 30.6258 24.5712 30.7719C24.421 30.9179 24.2173 31 24.0048 31C23.7924 31 23.5887 30.9179 23.4384 30.7719C23.2882 30.6258 23.2038 30.4277 23.2038 30.2211V24.6589L21.3671 26.4448C21.2169 26.5908 21.0132 26.6728 20.8008 26.6728C20.5884 26.6728 20.3847 26.5908 20.2345 26.4448Z" fill="#2A4365"/>
<path d="M29 14L24 19L19 14" stroke="#2A4365" stroke-width="2" stroke-linecap="round" stroke-linejoin="round"/>
<rect x="1" y="1" width="46" height="46" rx="23" stroke="#2A4365" stroke-width="2"/>
</svg>
