<svg width="25" height="25" viewBox="0 0 25 25" fill="none" xmlns="http://www.w3.org/2000/svg">
<path d="M24.2095 0.790258C24.0746 0.655931 23.904 0.562928 23.718 0.522184C23.532 0.48144 23.3383 0.494649 23.1595 0.560258L1.15951 8.56026C0.969781 8.63222 0.806432 8.76021 0.691164 8.92721C0.575895 9.09422 0.51416 9.29234 0.51416 9.49526C0.51416 9.69818 0.575895 9.8963 0.691164 10.0633C0.806432 10.2303 0.969781 10.3583 1.15951 10.4303L9.74951 13.8603L16.0895 7.50026L17.4995 8.91026L11.1295 15.2803L14.5695 23.8703C14.6436 24.0563 14.7719 24.2159 14.9377 24.3282C15.1035 24.4405 15.2992 24.5005 15.4995 24.5003C15.7016 24.4961 15.8977 24.4308 16.0619 24.313C16.2262 24.1952 16.3508 24.0304 16.4195 23.8403L24.4195 1.84026C24.4876 1.66333 24.5041 1.47069 24.4669 1.28478C24.4297 1.09887 24.3404 0.927368 24.2095 0.790258Z" fill="#F8F8F8"/>
</svg>
