<svg width="48" height="48" viewBox="0 0 48 48" fill="none" xmlns="http://www.w3.org/2000/svg">
<path d="M33 24.79C32.8427 26.4922 32.2039 28.1144 31.1583 29.4668C30.1127 30.8192 28.7035 31.8458 27.0957 32.4265C25.4879 33.0073 23.748 33.1181 22.0795 32.7461C20.411 32.3741 18.883 31.5345 17.6742 30.3258C16.4655 29.117 15.626 27.589 15.2539 25.9205C14.8819 24.252 14.9927 22.5121 15.5735 20.9043C16.1542 19.2965 17.1809 17.8874 18.5332 16.8418C19.8856 15.7961 21.5078 15.1573 23.21 15C22.2134 16.3483 21.7339 18.0094 21.8586 19.6814C21.9832 21.3534 22.7039 22.9251 23.8894 24.1106C25.075 25.2961 26.6466 26.0168 28.3186 26.1415C29.9906 26.2662 31.6518 25.7866 33 24.79V24.79Z" stroke="#2A4365" stroke-width="2" stroke-linecap="round" stroke-linejoin="round"/>
<path d="M24 46C11.8497 46 2 36.1503 2 24H-2C-2 38.3594 9.6406 50 24 50V46ZM46 24C46 36.1503 36.1503 46 24 46V50C38.3594 50 50 38.3594 50 24H46ZM24 2C36.1503 2 46 11.8497 46 24H50C50 9.6406 38.3594 -2 24 -2V2ZM24 -2C9.6406 -2 -2 9.6406 -2 24H2C2 11.8497 11.8497 2 24 2V-2Z" fill="#2A4365"/>
</svg>
