<svg width="48" height="48" viewBox="0 0 48 48" fill="none" xmlns="http://www.w3.org/2000/svg">
<path d="M0 24C0 10.7452 10.7452 0 24 0C37.2548 0 48 10.7452 48 24C48 37.2548 37.2548 48 24 48C10.7452 48 0 37.2548 0 24Z" fill="#2A4365"/>
<path d="M35 19L28 24L35 29V19Z" stroke="#F7FAFC" stroke-width="2" stroke-linecap="round" stroke-linejoin="round"/>
<path d="M26 17H15C13.8954 17 13 17.8954 13 19V29C13 30.1046 13.8954 31 15 31H26C27.1046 31 28 30.1046 28 29V19C28 17.8954 27.1046 17 26 17Z" stroke="#F7FAFC" stroke-width="2" stroke-linecap="round" stroke-linejoin="round"/>
</svg>
